<svg
   xmlns="http://www.w3.org/2000/svg"
   version="1.1"
   viewBox="0 0 670 750"
   height="750"
   width="670">
  <g transform="translate(32.596716,178.26537)">
    <path
       d="m 270.45988,567.5591 c -31.48042,-2.93413 -68.66119,-12.3218 -97.42453,-24.59844 -39.44928,-16.83757 -71.72817,-38.40977 -102.935405,-68.79242 -49.61306,-48.30215 -83.50196,-111.63752 -95.51011,-178.5 -5.62953,-31.34569 -6.74241,-72.59356 -2.75837,-102.23589 7.23204,-53.80827 24.7511308,-100.477993 54.18768,-144.352465 l 6.77218,-10.09376 -27.3723392,-27.35876 c -20.9642908,-20.9538901 -27.1218608,-27.66056 -26.3024208,-28.64793 0.58846,-0.70905 1.46378,-1.04576 1.94516,-0.74825 0.48138,0.29751 0.65479,-0.045 0.38536,-0.76101 -1.27381,-3.38536 35.8018,-42.21073 58.01279,-60.75068 20.09122,-16.77054 34.52748,-26.954525 57.24656,-40.384295 83.384365,-49.2904 186.313285,-66.7231 283.753445,-48.0583 71.82918,13.75899 140.76803,48.07183 195.45446,97.283295 15.90555,14.31316 35.36717,34.98006 47.73494,50.69122 l 3.1894,4.0516 -27.34008,27.32652 -27.34009,27.32653 6.2575,9.10608 c 29.51039,42.944342 47.97078,92.501285 55.1708,148.106095 2.09341,16.16718 2.38554,57.93958 0.5175,74 -7.52471,64.69338 -30.48419,121.33079 -69.5045,171.45662 -9.60252,12.33547 -32.42661,36.10766 -45.13993,47.015 -52.84182,45.33543 -117.50364,72.65935 -187,79.01994 -12.81068,1.17249 -48.97004,1.11376 -62,-0.1007 z m 73,-10.34228 c 49.6713,-6.79278 95.65548,-23.81814 136,-50.35315 97.3355,-64.01857 152.30982,-172.22915 146.43996,-288.25007 -1.8584,-36.73218 -10.40049,-74.66105 -24.42333,-108.44536 -13.20048,-31.803033 -36.6639,-68.796065 -57.8176,-91.156725 -2.17173,-2.29564 -3.62298,-4.65731 -3.24136,-5.27478 0.38004,-0.61493 0.29685,-0.9944 -0.18487,-0.84328 -0.48172,0.15113 -6.47767,-4.9860203 -13.32433,-11.4158901 C 510.52584,-13.907675 498.56832,-23.449495 481.1313,-35.051455 402.53498,-87.346605 303.81245,-102.49476 212.64101,-76.249075 102.04529,-44.411685 15.928485,45.123785 -11.863915,157.16824 c -6.56383,26.46194 -9.17651,48.38588 -9.17537,76.99387 0.001,31.5544 2.50322,52.82647 9.46895,80.50613 18.8723908,74.9931 62.9786,139.42548 126.767105,185.18717 6.19471,4.44407 11.13946,8.50343 10.98833,9.02081 -0.15112,0.51737 0.17211,0.66449 0.7183,0.32693 0.54618,-0.33756 5.61983,2.18214 11.27477,5.59935 21.02551,12.70544 48.72048,24.64332 74.78171,32.23455 20.08658,5.85091 38.18446,9.12031 66.5,12.01329 9.45117,0.96561 52.56326,-0.26949 64,-1.83352 z M 207.44315,438.91824 c 0.38349,-0.9625 3.39625,-9.16611 6.69503,-18.23024 3.29877,-9.06413 6.43842,-17.3036 6.97699,-18.30993 1.41028,-2.63513 5.94711,-1.86141 7.56512,1.29017 1.24111,2.41746 13.27959,35.62896 13.27959,36.63546 0,0.27356 -1.2375,0.35499 -2.75,0.18096 -2.23549,-0.25722 -3.0271,-1.11803 -4.23104,-4.60089 l -1.48104,-4.28447 -8.93807,0.28447 -8.93807,0.28447 -1.41422,4.25 c -1.24822,3.75113 -1.76915,4.25 -4.43788,4.25 -2.47863,0 -2.89797,-0.31545 -2.32641,-1.75 z m 23.52155,-13 c 0.008,-1.18809 -5.2538,-15.66324 -6.01501,-16.5484 -0.57397,-0.66742 -1.9511,2.60339 -6.75698,16.0484 -0.32848,0.91896 1.30296,1.25 6.16018,1.25 3.63385,0 6.60916,-0.3375 6.61181,-0.75 z m 20.91826,11.82692 c -2.46991,-2.4699 -2.92308,-3.71721 -2.92308,-8.04545 0,-4.10524 0.48739,-5.60977 2.45455,-7.57692 2.17232,-2.17233 3.32211,-2.45455 10,-2.45455 6.87878,0 7.54545,-0.17671 7.54545,-2 0,-1.86667 -0.66667,-2 -10,-2 -10,0 -10,0 -10,-2.5 l 0,-2.5 10.25,0.0153 c 5.6375,0.008 10.74513,0.34592 11.3503,0.75 2.43014,1.62265 3.3997,5.50748 3.3997,13.6219 0,13.25149 -1.9849,15.6128 -13.12398,15.6128 -5.33126,0 -6.36853,-0.33866 -8.95294,-2.92308 z m 16.57692,-7.57692 0,-5 -5.79344,-0.51544 c -3.18639,-0.2835 -6.44889,-0.14864 -7.25,0.29969 -1.512,0.84616 -2.098,8.74098 -0.74894,10.09004 0.3892,0.38919 3.6517,0.57669 7.25,0.41667 l 6.54238,-0.29096 0,-5 z m 17.5,9.72557 c -4.40365,-1.42838 -5,-3.14356 -5,-14.38056 0,-13.99434 0.65899,-14.84501 11.5,-14.84501 7.36,0 7.5,0.0473 7.5,2.53379 0,2.46474 -0.17349,2.52901 -6.36675,2.35863 -3.50172,-0.0963 -6.87672,0.14002 -7.5,0.52523 -1.56671,0.96828 -1.5092,16.8064 0.0668,18.38235 0.67937,0.67937 3.93333,1.2 7.5,1.2 6.06138,0 6.3,0.0951 6.3,2.51204 0,2.4314 -0.20062,2.50703 -6.25,2.35605 -3.4375,-0.0858 -6.925,-0.37492 -7.75,-0.64252 z m 20,-19.15602 0,-20.06955 2.5,0 c 2.33333,0 2.5,0.33333 2.5,5 l 0,5 7.84501,0 c 10.89181,0 11.00339,0.16428 11.22101,16.5198 0.16579,12.46018 0.0891,12.99284 -1.91535,13.29565 -2.00891,0.30349 -2.09873,-0.15141 -2.36937,-12 l -0.2813,-12.31545 -7,0 -7,0 -0.5,12 c -0.47952,11.50837 -0.59218,12.01309 -2.75,12.31955 l -2.25,0.31955 0,-20.06955 z m 35.31537,18.92347 c -3.49718,-1.40905 -4.31537,-4.22548 -4.31537,-14.8547 0,-9.6047 0.10242,-10.07373 2.63486,-12.06574 2.11078,-1.66034 4.06511,-2.07258 9.82568,-2.07258 6.28948,0 7.47234,0.29965 9.43667,2.39058 1.58142,1.68335 2.15071,3.33912 1.92431,5.59685 -0.30034,2.99505 -0.94638,3.49344 -9.80684,7.56537 -5.21692,2.39751 -9.64696,4.84405 -9.84454,5.43677 -0.96202,2.88606 2.10857,4.01043 10.9523,4.01043 8.80273,0 8.87756,0.0211 8.87756,2.5 0,2.48102 -0.0664,2.49952 -8.75,2.43661 -4.8125,-0.0349 -9.73308,-0.45948 -10.93463,-0.94359 z m 14.64459,-22.24302 c 0.0343,-1.50129 -0.93961,-1.75 -6.85297,-1.75 -5.36304,0 -7.02774,0.35109 -7.5,1.58179 -0.77133,2.01005 -0.7887,6.90317 -0.0272,7.66466 0.31888,0.31889 3.67586,-0.84361 7.45995,-2.58333 4.6177,-2.12296 6.89334,-3.73859 6.92022,-4.91312 z m 12.04004,10.28896 c 0,-16.38315 0.46186,-17.03896 12,-17.03896 11.51163,0 12,0.68478 12,16.82615 0,12.03136 -0.11247,12.75671 -2,12.8989 -1.88897,0.14229 -2.00085,-0.47045 -2.01531,-11.0372 -0.008,-6.15332 -0.38621,-11.77256 -0.83952,-12.4872 -0.57872,-0.91235 -2.88243,-1.21019 -7.73469,-1 l -6.91048,0.29935 -0.28078,12.25 c -0.26186,11.42446 -0.41349,12.25 -2.25,12.25 -1.85767,0 -1.96922,-0.73419 -1.96922,-12.96104 z m -241,-34.95302 c 0,-2.04686 0.38471,-2.08594 20.53212,-2.08594 21.76744,0 25.03352,-0.55357 28.90678,-4.89946 1.30166,-1.46049 2.07929,-4.11635 2.36606,-8.08091 l 0.42716,-5.90541 -21.04579,-0.30711 c -23.07557,-0.33673 -23.60181,-0.4689 -28.62454,-7.18939 -1.91491,-2.56219 -2.08338,-4.35553 -2.36486,-25.17402 -0.27955,-20.67567 -0.14676,-22.76869 1.71101,-26.96849 1.63991,-3.70729 2.90378,-4.9599 6.80307,-6.74245 4.14335,-1.89411 6.54163,-2.18949 17.78899,-2.19097 7.54182,-9.9e-4 14.76531,0.52575 17.20453,1.25455 5.67889,1.69678 10.02286,5.56135 11.26064,10.01794 0.59775,2.15218 1.026,16.76471 1.02925,35.12 0.005,29.70246 -0.10792,31.66873 -2.05453,35.68989 -1.5436,3.18866 -3.23594,4.8348 -6.75,6.56572 -4.37214,2.1536 -6.12962,2.33287 -25.93989,2.64605 -20.98252,0.3317 -21.25,0.30968 -21.25,-1.75 z m 52,-50.11806 c 0,-35.7953 0.22656,-35.46788 -24.54207,-35.46788 -12.68616,0 -15.464,0.27627 -17.73607,1.76393 -5.77565,3.78166 -6.19545,5.4674 -6.52199,26.18979 -0.3519,22.33217 0.48381,26.7426 5.73832,30.28361 3.20744,2.16149 4.24531,2.26267 23.20969,2.26267 l 19.85212,0 0,-25.03212 z M 38.410295,370.31439 c -4.03814,-1.82875 -8.2259,-6.92843 -8.97189,-10.92559 -0.33058,-1.77131 -0.46098,-12.70694 -0.28979,-24.3014 l 0.31126,-21.08083 2.88182,-3.77527 c 4.79485,-6.28139 7.53682,-6.95638 29.61818,-7.29108 l 19.5,-0.29558 0.28338,-11.0551 c 0.25178,-9.82261 0.47475,-11.01826 2,-10.72474 1.57939,0.30394 1.7376,3.2749 1.97904,37.16391 0.27191,38.16517 -0.0591,42.20441 -3.85411,47.02896 -4.14104,5.26448 -7.05089,6.02051 -24.40831,6.3417 -11.99551,0.22198 -16.76325,-0.0496 -19.04958,-1.08498 z m 37.23008,-5.21723 c 5.92318,-4.35092 6.31624,-6.45181 6.31795,-33.76935 l 0.002,-24.84043 -19.92861,0.34043 c -21.82158,0.37277 -22.53643,0.5606 -27.5096,7.22833 -1.93043,2.58821 -2.06179,4.1133 -2.06179,23.93821 0,23.15939 0.23791,24.29545 5.81382,27.76145 2.88161,1.79121 4.6851,1.95338 18.86668,1.69649 14.02448,-0.25405 15.97826,-0.50278 18.5,-2.35513 z m 28.556375,-27.6655 c 0.24356,-31.69043 0.39328,-34.26162 2.01313,-34.57332 1.63942,-0.31547 1.75,1.84798 1.75,34.23658 0,33.9818 -0.0344,34.57332 -2.01313,34.57332 -1.98342,0 -2.00924,-0.50511 -1.75,-34.23658 z m 97.76313,-0.33674 c 0,-32.3886 0.11058,-34.55205 1.75,-34.23658 1.61985,0.3117 1.76957,2.88289 2.01313,34.57332 0.25924,33.73147 0.23342,34.23658 -1.75,34.23658 -1.97869,0 -2.01313,-0.59152 -2.01313,-34.57332 z m 22,-10.92668 c 0,-44.83333 0.0293,-45.5 2,-45.5 1.88161,0 1.99987,0.66592 1.99776,11.25 l -0.002,11.25 9.36848,-0.31548 c 8.76116,-0.29503 9.40351,-0.18158 9.90863,1.75 0.51899,1.98466 0.15249,2.06548 -9.36625,2.06548 l -9.90662,0 0,32.5 c 0,31.83333 -0.041,32.5 -2,32.5 -1.9707,0 -2,-0.66667 -2,-45.5 z m 39.3275,44.27548 c -4.41803,-1.42094 -9.31281,-6.79754 -10.3814,-11.40331 -2.25668,-9.72662 -0.48213,-22.91241 3.70646,-27.54075 4.16211,-4.59907 6.51194,-5.02896 27.99346,-5.12121 l 20.35398,-0.0874 0,-4.41027 c 0,-6.44894 -2.42237,-10.75449 -7.40869,-13.16833 -3.83742,-1.85766 -6.11696,-2.0442 -24.98036,-2.0442 -19.23203,0 -20.7326,-0.12862 -20.41751,-1.75 0.31099,-1.60026 2.13551,-1.75 21.32332,-1.75 20.40038,0 21.12023,0.0694 25.91479,2.5 8.21507,4.16454 8.56909,5.5073 8.56471,32.4844 -0.003,21.3161 -0.15267,23.25988 -2.02066,26.32374 -3.54428,5.81331 -8.30288,7.15994 -24.9756,7.06781 -7.975,-0.0441 -15.92763,-0.53928 -17.6725,-1.10047 z m 35.58731,-4.23143 c 4.96855,-2.56934 6.08519,-6.68805 6.08519,-22.44518 l 0,-14.09887 -19.2656,0 c -21.75483,0 -24.74303,0.75657 -27.98285,7.08481 -2.32455,4.54048 -2.45238,19.65925 -0.203,24.00907 3.08695,5.96952 6.21535,6.89822 23.25111,6.90238 11.44405,0.003 16.00918,-0.36317 18.11515,-1.45221 z m 28.08519,-40.04405 c 0,-44.83333 0.0293,-45.5 2,-45.5 1.9707,0 2,0.66667 2,45.5 0,44.83333 -0.0293,45.5 -2,45.5 -1.9707,0 -2,-0.66667 -2,-45.5 z m 21.23981,0.25 0.26019,-45.25 6.25,-0.29772 6.25,-0.29771 0,20.04771 0,20.04772 20,0 20,0 0,-20 0,-20 6.5,0 6.5,0 0,45.5 0,45.5 -6.5,0 -6.5,0 0,-19.5 0,-19.5 -20,0 -20,0 0,19.5 0,19.5 -6.51019,0 -6.51019,0 0.26019,-45.25 z m 96.26019,44.02847 c -4.94722,-1.75402 -8.33789,-4.64651 -11.24614,-9.59382 l -2.75386,-4.68465 0,-37.5 0,-37.5 6.25,-0.29772 6.25,-0.29771 0,34.89849 c 0,35.96129 0.41295,40.27721 4.03944,42.21805 1.00599,0.53839 8.10881,0.97889 15.78403,0.97889 12.24745,0 14.24382,-0.2338 16.31575,-1.91079 l 2.36078,-1.91079 0.28519,-37.08921 0.28519,-37.08921 6.5194,0 6.51939,0 -0.30459,38.25 -0.30458,38.25 -2.6947,4.14253 c -3.01274,4.63145 -6.64621,7.48883 -11.70452,9.20452 -4.26546,1.44676 -31.47458,1.39435 -35.60078,-0.0686 z m 66.5,-44.33901 0,-45.56054 26.25,0.31054 c 29.5671,0.34978 30.17386,0.48984 35.52271,8.19973 2.5058,3.61189 2.75434,4.84208 3.06032,15.14806 0.29061,9.78805 0.0686,11.73529 -1.74296,15.28621 -1.1418,2.23811 -2.86667,4.52253 -3.83304,5.0765 -1.61979,0.92854 -1.57303,1.13821 0.5986,2.68432 3.79166,2.69949 5.14437,7.41041 5.14437,17.91572 0,13.57125 -3.16055,19.93668 -12.21016,24.59158 -3.35407,1.72525 -6.06545,1.90842 -28.25,1.90842 l -24.53984,0 0,-45.56054 z m 47.94124,31.09092 c 3.37827,-1.74697 5.05876,-5.9809 5.05876,-12.74534 0,-10.35049 -2.97839,-11.78504 -24.46788,-11.78504 l -15.53212,0 0,13 0,13 16.04966,0 c 12.16303,0 16.73787,-0.35589 18.89158,-1.46962 z m 0.77951,-38.50266 c 3.33687,-2.21223 4.56128,-6.25764 4.09766,-13.53857 -0.32228,-5.0614 -0.91688,-7.03264 -2.64234,-8.7601 -2.10547,-2.10789 -3.17632,-2.24614 -19.70128,-2.54351 l -17.47479,-0.31446 0,13.64875 0,13.64875 16.75,-0.33429 c 12.6331,-0.25213 17.29583,-0.69615 18.97075,-1.80657 z m -456.0119,-23.6522 c -2.37509,-2.37509 1.33477,-7.20266 4.18252,-5.44265 1.98953,1.22959 0.94069,5.5196 -1.43252,5.85931 -1.12263,0.1607 -2.36013,-0.0268 -2.75,-0.41666 z m 96.9189,-0.90321 c -0.83582,-2.17811 -0.85388,-2.10332 0.9417,-3.8989 2.15645,-2.15645 5.67653,-0.31338 5.24123,2.74425 -0.39161,2.75079 -5.22413,3.65325 -6.18293,1.15465 z m -70.62775,-47.97231 0,-6.5 7,0 7,0 0,6.5 0,6.5 -7,0 -7,0 0,-6.5 z m 17.83533,-0.002 -0.33533,-6.5021 6.75,0.002 6.75,0.002 0,6.5 0,6.5 -6.41467,0 -6.41468,0 -0.33532,-6.5021 z m 17.16467,0.002 0,-6.5 7,0 7,0 0,6.5 0,6.5 -7,0 -7,0 0,-6.5 z m 17.5,0.003 0,-6.49801 6.75,-0.003 6.75,-0.003 0,6.5 0,6.5 -6.75,6.3e-4 -6.75,6.4e-4 0,-6.498 z m 17.5,-0.003 0,-6.5 6.75,1.6e-4 6.75,1.6e-4 0.0238,6.49984 0.0239,6.49984 -6.77385,0 -6.77385,0 0,-6.5 z m 17,0 0,-6.5 7,0 7,0 0,6.5 0,6.5 -7,0 -7,0 0,-6.5 z m 18,0 0,-6.5 6.5,0 6.5,0 0,6.5 0,6.5 -6.5,0 -6.5,0 0,-6.5 z m 17,0 0,-6.5 7,0 7,0 0,6.5 0,6.5 -7,0 -7,0 0,-6.5 z m 17.49349,-6.8e-4 -0.007,-6.49932 6.75651,0 6.75651,0 0,6.5 0,6.5 -6.75,-6.8e-4 -6.75,-6.8e-4 -0.007,-6.49932 z m 17.50651,6.8e-4 0,-6.5 6.5,0 6.5,0 0,6.5 0,6.5 -6.5,0 -6.5,0 0,-6.5 z m 17,0 0,-6.5 7,0 7,0 0,6.5 0,6.5 -7,0 -7,0 0,-6.5 z m 18,0 0,-6.5 6.5,0 6.5,0 0,6.5 0,6.5 -6.5,0 -6.5,0 0,-6.5 z m 17,0 0,-6.5 7,0 7,0 0,6.5 0,6.5 -7,0 -7,0 0,-6.5 z m 17.5,0.003 0,-6.49801 6.75,-0.003 6.75,-0.003 0,6.5 0,6.5 -6.75,6.3e-4 -6.75,6.4e-4 0,-6.498 z m 17.5,-0.003 0,-6.5 6.75,0 6.75,0 0,6.5 0,6.5 -6.75,0 -6.75,0 0,-6.5 z m 17,0 0,-6.5 7,0 7,0 0,6.5 0,6.5 -7,0 -7,0 0,-6.5 z m 17.5,0.003 0,-6.49801 6.75,-0.003 6.75,-0.003 0,6.5 0,6.5 -6.75,6.3e-4 -6.75,6.4e-4 0,-6.498 z m 17.5,-0.003 0,-6.5 6.75,-0.002 6.75,-0.002 -0.33533,6.5021 -0.33532,6.5021 -6.41468,0 -6.41467,0 0,-6.5 z m 17,0 0,-6.5 7,0 7,0 0,6.5 0,6.5 -7,0 -7,0 0,-6.5 z m 18,0 0,-6.5 6.5,0 6.5,0 0,6.5 0,6.5 -6.5,0 -6.5,0 0,-6.5 z m -313,-17.5 0,-7 6.5,0 6.5,0 0,7 0,7 -6.5,0 -6.5,0 0,-7 z m 17,0 0,-7 7,0 7,0 0,7 0,7 -7,0 -7,0 0,-7 z m 17.83206,0.002 0.33206,-7.00225 6.41794,0 6.41794,0 0,7 0,7 -6.75,0.002 -6.75,0.002 0.33206,-7.00226 z m 17.16794,-0.002 0,-7.09138 6.72038,0.29569 6.72038,0.29569 -0.006,6.5 -0.006,6.5 -6.71481,0.29569 -6.71395,0.29569 0,-7.09138 z m 17,0 0,-7 7,0 7,0 0,7 0,7 -7,0 -7,0 0,-7 z m 18,0 0,-7 6.5,0 6.5,0 0,7 0,7 -6.5,0 -6.5,0 0,-7 z m 17,0 0,-7 7,0 7,0 0,7 0,7 -7,0 -7,0 0,-7 z m 17.66976,0.25061 0.16975,-6.75061 6.58025,-0.29569 6.58024,-0.29569 0,7.04569 0,7.04569 -6.75,6.1e-4 -6.75,6.2e-4 0.16976,-6.75062 z m 17.33024,-0.25061 0,-7 6.5,0 6.5,0 0,7 0,7 -6.5,0 -6.5,0 0,-7 z m 17,0 0,-7 7,0 7,0 0,7 0,7 -7,0 -7,0 0,-7 z m 18,0 0,-7 6.5,0 6.5,0 0,7 0,7 -6.5,0 -6.5,0 0,-7 z m 17,0 0,-7 7,0 7,0 0,7 0,7 -7,0 -7,0 0,-7 z m 17.39301,5.41821 c 0.33385,-0.86998 0.60699,-4.01998 0.60699,-7 l 0,-5.41821 6.5,0 6.5,0 0,7 0,7 -7.10699,0 c -6.0698,0 -7.0184,-0.23084 -6.5,-1.58179 z m 17.60699,-5.41821 0,-7 6.5,0 6.5,0 0,7 0,7 -6.5,0 -6.5,0 0,-7 z m 17,0 0,-7 7,0 7,0 0,7 0,7 -7,0 -7,0 0,-7 z m 18,0 0,-7 6.5,0 6.5,0 0,7 0,7 -6.5,0 -6.5,0 0,-7 z m 17,0 0,-7 6.5,0 6.5,0 0,7 0,7 -6.5,0 -6.5,0 0,-7 z m 17,0 0,-7 7,0 7,0 0,7 0,7 -7,0 -7,0 0,-7 z m -295.16816,-17.00787 -0.33184,-6.99664 6.75,0.002 6.75,0.002 0,6.7979 0,6.7979 -6.41816,0.19648 -6.41816,0.19648 -0.33184,-6.99663 z m 17.16816,-0.0434 0,-6.94871 7,0 7,0 0,6.84542 0,6.84542 -7,0.10329 -7,0.10329 0,-6.94871 z m 17.94897,6.64369 c -0.0281,-0.0508 -0.14057,-3.13015 -0.25,-6.84295 l -0.19897,-6.75054 6.75,5.4e-4 6.75,5.5e-4 0,7.05283 0,7.05283 -6.5,-0.21043 c -3.575,-0.11573 -6.52296,-0.25201 -6.55103,-0.30283 z m 34.78799,-0.18878 c -0.40533,-0.40532 -0.73696,-3.58695 -0.73696,-7.07029 l 0,-6.33333 7.04569,0 7.04569,0 -0.29569,6.70665 -0.29569,6.70666 -6.01304,0.36363 c -3.30718,0.2 -6.34468,0.032 -6.75,-0.37332 z m 17.26304,-6.51473 0,-6.88889 6.5,0 6.5,0 0,6.88889 0,6.88889 -6.5,0 -6.5,0 0,-6.88889 z m 17,-0.0664 0,-6.82249 7.04569,0 7.04569,0 -0.29569,6.75 -0.29569,6.75 -6.75,0.0725 -6.75,0.0725 0,-6.82248 z m 17.93899,6.7986 c -0.0336,-0.0666 -0.14658,-3.15859 -0.25116,-6.87109 l -0.19014,-6.75 6.75116,0 6.75115,0 0,7.01204 0,7.01204 -6.5,-0.14095 c -3.575,-0.0775 -6.52746,-0.19544 -6.56101,-0.26204 z m 17.06101,-6.7322 0,-6.88889 6.75,-0.002 6.75,-0.002 -0.3277,6.89115 -0.32771,6.89114 -6.42229,0 -6.4223,0 0,-6.88889 z m 17.59132,6.3691 c -0.32523,-0.32523 -0.59132,-3.44132 -0.59132,-6.92466 l 0,-6.33333 7,0 7,0 0,6.88768 0,6.88768 -6.40868,0.037 c -3.52477,0.0203 -6.67477,-0.22912 -7,-0.55434 z m 34.40868,-6.25172 0,-7.00627 7.04569,0 7.04569,0 -0.29569,6.70217 -0.29569,6.70218 -6.75,0.30409 -6.75,0.3041 0,-7.00627 z m 17.96155,6.62672 c -0.0211,-0.0731 -0.13365,-3.17077 -0.25,-6.8836 l -0.21155,-6.75062 6.75,6.2e-4 6.75,6.1e-4 0,6.76024 0,6.76025 -6.5,0.12274 c -3.575,0.0675 -6.5173,0.0629 -6.53845,-0.0102 z m 17.03845,-6.84973 0,-6.78326 6.75,-0.002 6.75,-0.002 -0.33267,7.01792 -0.33268,7.01791 -6.41732,-0.23239 -6.41733,-0.2324 0,-6.78327 z m 17.52225,6.40565 c -0.28724,-0.28723 -0.52225,-3.37224 -0.52225,-6.85558 l 0,-6.33333 7,0 7,0 0,7.03379 0,7.03379 -6.47775,-0.17821 c -3.56277,-0.098 -6.71277,-0.41322 -7,-0.70046 z m 17.42672,0.56109 c -0.0281,-0.1375 -0.14057,-3.28775 -0.25,-7.00055 l -0.19897,-6.75054 6.75,5.4e-4 6.75,5.5e-4 0,7 0,7 -6.5,0 c -3.575,0 -6.52296,-0.1125 -6.55103,-0.25 z m 17.05103,-6.75 0,-7 6.75,-0.002 6.75,-0.002 -0.33206,7.00226 -0.33206,7.00225 -6.41794,0 -6.41794,0 0,-7 z m -278,-17.75 0,-6.75 6.5,0 6.5,0 0,6.75 0,6.75 -6.5,0 -6.5,0 0,-6.75 z m 17,0.33533 0,-6.41468 6.5872,-0.33532 c 3.62295,-0.18443 6.77295,-0.14783 7,0.0813 0.22704,0.22916 0.4128,3.26666 0.4128,6.75 l 0,6.33333 -7,0 -7,0 0,-6.41467 z m 17.39301,4.83288 c 0.33385,-0.86998 0.60605,-3.90748 0.60489,-6.75 l -0.002,-5.16821 6.5021,0.33533 6.5021,0.33532 0,6.41468 0,6.41467 -7.10699,0 c -6.0698,0 -7.0184,-0.23084 -6.5,-1.58179 z m 34.60699,-4.91821 0,-6.5 7,0 7,0 0,6.5 0,6.5 -7,0 -7,0 0,-6.5 z m 18,-0.25 0,-6.75 6.5,0 6.5,0 0,6.75 0,6.75 -6.5,0 -6.5,0 0,-6.75 z m 17,0.25 0,-6.5 7,0 7,0 0,6.5 0,6.5 -7,0 -7,0 0,-6.5 z m 17.5,0.0708 0,-6.42661 6.75225,-0.32209 6.75226,-0.3221 -0.002,6.75 -0.002,6.75 -6.75,-0.001 -6.75,-0.001 0,-6.4266 z m 17.5,-0.3208 0,-6.75 6.5,0 6.5,0 0,6.75 0,6.75 -6.5,0 -6.5,0 0,-6.75 z m 17,0.41667 c 0,-3.48334 0.18576,-6.52084 0.4128,-6.75 0.22705,-0.22917 3.37705,-0.26577 7,-0.0813 l 6.5872,0.33532 0,6.41468 0,6.41467 -7,0 -7,0 0,-6.33333 z m 35,-0.16667 0,-6.5 7,0 7,0 0,6.5 0,6.5 -7,0 -7,0 0,-6.5 z m 17.67308,-0.24939 c 0.0952,-3.71283 0.43269,-6.63811 0.75,-6.50061 0.3173,0.1375 3.27692,0.25 6.57692,0.25 l 6,0 0,6.5 0,6.5 -6.75,6.1e-4 -6.75,6.2e-4 0.17308,-6.75062 z m 17.32637,-6.1e-4 -5.4e-4,-6.75 6.50103,0.14676 c 3.57557,0.0807 6.50081,0.41822 6.50055,0.75 -2.7e-4,0.33178 -4.9e-4,3.30324 -4.9e-4,6.60324 l 0,6 -6.5,0 -6.5,0 -5.5e-4,-6.75 z m 17.00055,0.25 0,-6.5 7,0 7,0 0,6.5 0,6.5 -7,0 -7,0 0,-6.5 z m 17.94624,6.25 c -0.0296,-0.1375 -0.14206,-3.03026 -0.25,-6.42835 l -0.19624,-6.17836 6.75225,-0.32164 6.75226,-0.32165 -0.002,6.75 -0.002,6.75 -6.5,0 c -3.575,0 -6.52419,-0.1125 -6.55376,-0.25 z m 17.05376,-6.5 0,-6.75 6.5,0 6.5,0 0,6.75 0,6.75 -6.5,0 -6.5,0 0,-6.75 z m -278,-17.25 0,-7 6.5,0 6.5,0 0,7 0,7 -6.5,0 -6.5,0 0,-7 z m 17,0 0,-7 7,0 7,0 0,7 0,7 -7,0 -7,0 0,-7 z m 17.94897,6.75 c -0.0281,-0.1375 -0.14057,-3.28775 -0.25,-7.00055 l -0.19897,-6.75054 6.75,5.4e-4 6.75,5.5e-4 0,7 0,7 -6.5,0 c -3.575,0 -6.52296,-0.1125 -6.55103,-0.25 z m 52.05103,-6.75 0,-7 6.5,0 6.5,0 0,7 0,7 -6.5,0 -6.5,0 0,-7 z m 17,0.0457 0,-7.04569 7.04569,0 7.04569,0 -0.29569,6.75 -0.29569,6.75 -6.75,0.29569 -6.75,0.29569 0,-7.04569 z m 17.9245,6.70431 c -0.0415,-0.1375 -0.15402,-3.28758 -0.25,-7.00018 l -0.1745,-6.75018 6.75,1.8e-4 6.75,1.8e-4 0,7 0,7 -6.5,0 c -3.575,0 -6.53397,-0.1125 -6.5755,-0.25 z m 17.0755,-6.75001 0,-7 6.5,0 6.5,0 0,7 0,7 -6.5,0 -6.5,0 0,-7 z m 69.91291,6.25 c -0.0479,-0.4125 -0.16041,-3.56219 -0.25,-6.9993 l -0.16291,-6.24931 6.75,-6.9e-4 6.75,-7e-4 0,7 0,7 -6.5,0 c -3.575,0 -6.53919,-0.3375 -6.58709,-0.75 z m 17.08709,-6.20431 0,-7.04569 6.75,-5.5e-4 6.75,-5.4e-4 -0.14463,6.75054 -0.14463,6.75055 -6.60537,0.29569 -6.60537,0.29569 0,-7.04569 z m 17,-0.0457 0,-7 7,0 7,0 0,7 0,7 -7,0 -7,0 0,-7 z m 17.91291,6.25 c -0.0479,-0.4125 -0.16041,-3.56219 -0.25,-6.9993 l -0.16291,-6.24931 6.75,-6.9e-4 6.75,-7e-4 0,7 0,7 -6.5,0 c -3.575,0 -6.53919,-0.3375 -6.58709,-0.75 z m -261.07758,-23.7479 0.33532,-6.5021 6.41468,0 6.41467,0 0,6.5 0,6.5 -6.75,0.002 -6.75,0.002 0.33533,-6.5021 z m 17.16467,-0.002 0,-6.5 7,0 7,0 0,6.5 0,6.5 -7,0 -7,0 0,-6.5 z m 17.5,0 0,-6.5 6.75,0 6.75,0 0,6.5 0,6.5 -6.75,0 -6.75,0 0,-6.5 z m 69.5,0 0,-6.5 7,0 7,0 0,6.5 0,6.5 -7,0 -7,0 0,-6.5 z m 17.37936,0.008 0.12064,-6.4921 6.75,-0.008 6.75,-0.008 0,6.5 0,6.5 -6.87064,0 -6.87065,0 0.12065,-6.4921 z m -121.37936,-17.508 0,-7 6.5,0 6.5,0 0,7 0,7 -6.5,0 -6.5,0 0,-7 z m 17,0 0,-7 7,0 7,0 0,7 0,7 -7,0 -7,0 0,-7 z m 17.83206,0.002 0.33206,-7.00225 6.41794,0 6.41794,0 0,7 0,7 -6.75,0.002 -6.75,0.002 0.33206,-7.00226 z m 69.16794,-0.002 0,-7 7,0 7,0 0,7 0,7 -7,0 -7,0 0,-7 z m 17.94897,6.75 c -0.0281,-0.1375 -0.14057,-3.28775 -0.25,-7.00055 l -0.19897,-6.75054 6.75,5.4e-4 6.75,5.5e-4 0,7 0,7 -6.5,0 c -3.575,0 -6.52296,-0.1125 -6.55103,-0.25 z m -122.11364,-24.2521 -0.33533,-6.5021 6.75,0.002 6.75,0.002 0,6.5 0,6.5 -6.41467,0 -6.41468,0 -0.33532,-6.5021 z m 17.16467,0.002 0,-6.5 7,0 7,0 0,6.5 0,6.5 -7,0 -7,0 0,-6.5 z m 17.5,0 0,-6.5 6.75,0 6.75,0 0,6.5 0,6.5 -6.75,0 -6.75,0 0,-6.5 z m -34.5,-17 0,-6.5 6.5,0 6.5,0 0,6.5 0,6.5 -6.5,0 -6.5,0 0,-6.5 z m 17,-0.5 0,-7.000002 7,0 7,0 0,7.000002 0,7 -7,0 -7,0 0,-7 z m 17.5,0.5 0,-6.5 6.75,0 6.75,0 0,6.5 0,6.5 -6.75,0 -6.75,0 0,-6.5 z m -17.5,-17.454313 0,-7.04569 7.04569,0 7.04569,0 -0.29569,6.75 -0.29569,6.75 -6.75,0.29569 -6.75,0.29569 0,-7.04569 z m -0.002,-17.79569 -0.002,-6.750002 7.00226,0.33206 7.00225,0.33206 0,6.417942 0,6.41794 -7,0 -7,0 -0.002,-6.75 z m 0.002,-17.250002 0,-7 7,0 7,0 0,7 0,7 -7,0 -7,0 0,-7 z m 0,-17.5 0,-6.5 7,0 7,0 0,6.5 0,6.5 -7,0 -7,0 0,-6.5 z m -97.828745,-50.155 c 1.00581,-0.91024 1.82704,-2.59774 1.82496,-3.75 -0.002,-1.15225 -3.19121,-7.49501 -7.08695,-14.09501 -9.41266,-15.94653 -9.59024,-16.28395 -7.82299,-14.86452 13.61605,10.9362 24.54207,18.36452 27.01163,18.36452 3.44719,0 6.41049,-3.82282 5.40908,-6.97799 -1.0778,-3.39583 -21.57814,-40.02201 -22.40106,-40.02201 -0.41651,0 -1.77581,1.08415 -3.02065,2.40923 l -2.26335,2.40922 6.23024,11.34078 c 3.42664,6.23742 7.37486,13.3222 8.77383,15.74395 l 2.54358,4.40317 -13.43479,-10.14477 c -14.23854,-10.7517 -17.49895,-12.04961 -20.28328,-8.07442 -2.05102,2.92823 -1.12275,5.35802 7.60743,19.91284 4.12373,6.875 7.34829,12.66665 7.16571,12.87033 -0.18259,0.20368 -6.18173,-3.96485 -13.33143,-9.26339 -7.14969,-5.29855 -13.60464,-9.86596 -14.34433,-10.14981 -1.28661,-0.49371 -6.54048,4.0921 -5.6695,4.9486 0.23134,0.22749 8.52061,6.29652 18.42061,13.48674 18.41089,13.37154 21.14721,14.6417599 24.67126,11.45254 z m 494.828745,-21.65735 c 10.75954,-11.22918 10.81378,-11.32843 7.82445,-14.31775 l -2.40236,-2.40237 -6.99098,7.26623 c -3.84504,3.99643 -11.24625,11.92638 -16.44714,17.62211 l -9.45615,10.35588 2.86055,2.28093 2.86056,2.28093 6.62553,-7.10748 c 3.64405,-3.90911 10.45054,-11.09943 15.12554,-15.97848 z m -34.94356,7.06234 c 1.03236,-1.2375 1.89199,-2.74748 1.91029,-3.35551 0.0183,-0.60803 -3.56673,-3.93555 -7.96673,-7.39449 -5.02338,-3.94899 -8,-7.00119 -8,-8.20313 0,-1.05278 1.4015,-3.65812 3.11444,-5.78965 l 3.11444,-3.87551 7.96767,6.68414 c 11.11308,9.32287 10.35065,8.95459 12.6983,6.1337 1.12124,-1.34725 2.03549,-2.89955 2.03167,-3.44955 -0.004,-0.55 -2.57635,-2.92968 -5.71673,-5.28817 -3.14039,-2.35849 -7.28479,-5.58992 -9.20979,-7.18096 l -3.5,-2.8928 3,-3.15509 c 5.34563,-5.62198 5.54027,-5.60165 14.58434,1.52387 4.53279,3.57123 8.53969,6.49315 8.90423,6.49315 0.88523,0 5.46872,-4.91134 4.93204,-5.28482 -0.23134,-0.16099 -3.57061,-2.78832 -7.42061,-5.83852 -3.85,-3.0502 -8.11263,-6.29526 -9.47251,-7.21124 -2.78255,-1.87426 -8.18809,-2.18502 -11.08057,-0.63701 -2.53548,1.35694 -19.85646,22.60346 -21.10553,25.88878 -1.54917,4.07461 -0.13013,8.55076 3.93431,12.41016 3.79254,3.60122 14.44659,12.52756 15.06401,12.62116 0.18684,0.0283 1.18437,-0.96101 2.21673,-2.19851 z m -416.28988,-21.77236 c -1.23981,-2.89182 -26.379305,-37.9725 -27.199565,-37.9554 -0.58685,0.0122 -2.10855,0.82357 -3.38156,1.80299 l -2.31455,1.78076 13.63926,19.67171 13.639265,19.67171 2.94186,-2.17501 c 1.61802,-1.19626 2.82191,-2.4548 2.67529,-2.79676 z m 378.7515,-8.42074 c 4.17255,-1.7434 9.4791,-9.57475 9.48826,-14.00268 0.005,-2.35299 0.70425,-3.45141 3.04616,-4.7842 1.94154,-1.10494 3.93203,-3.67878 5.50921,-7.1238 2.24016,-4.89316 2.3519,-5.75231 1.20384,-9.25589 -1.11914,-3.41531 -2.53797,-4.64174 -12.26553,-10.602205 -6.05,-3.70708 -11.54667,-6.75094 -12.21482,-6.76413 -0.66815,-0.0132 -1.74365,0.98851 -2.39,2.22601 -0.64635,1.2375 -5.59622,9.709094 -10.99971,18.825765 -5.40349,9.11668 -10.09299,17.27538 -10.42111,18.13045 -0.44671,1.16411 2.24499,3.21396 10.71453,8.15961 6.22111,3.63272 12.11306,6.61152 13.09323,6.61956 0.98016,0.008 3.33634,-0.63478 5.23594,-1.42849 z m -12.51806,-10.59518 c -3.575,-2.205 -6.36248,-4.5235 -6.1944,-5.15222 0.16809,-0.62871 1.42756,-3.05759 2.79884,-5.39751 l 2.49324,-4.25438 7.03406,4.05543 c 3.86873,2.23049 7.2901,4.72269 7.60305,5.53821 0.77762,2.02645 -1.1034,6.80727 -2.55695,6.49875 -0.64781,-0.1375 -1.06534,0.30182 -0.92784,0.97626 0.52723,2.58607 -4.01132,1.58337 -10.25,-2.26454 z m 14.5,-14.57329 c -1.1,-0.85138 -4.16704,-2.65962 -6.81565,-4.01831 l -4.81566,-2.47035 2.6986,-4.69988 c 1.48423,-2.58494 3.05018,-5.088789 3.47988,-5.564111 0.84143,-0.930764 11.774,5.404141 14.47283,8.386311 1.35425,1.49644 1.42925,2.21737 0.43121,4.14472 -3.03115,5.85351 -5.76502,7.07466 -9.45121,4.22162 z m -365.45034,24.08589 c 1.62269,-0.83912 2.95034,-1.7434 2.95034,-2.0095 0,-0.2661 -2.06583,-4.30455 -4.59073,-8.97432 -2.5249,-4.66978 -4.4374,-8.48963 -4.25,-8.48857 0.1874,0.001 5.47075,2.02606 11.74077,4.5 6.27002,2.47394 11.98903,4.49807 12.7089,4.49807 1.52118,0 8.33425,-3.26072 8.35774,-4 0.009,-0.275 -5.15519,-2.47977 -11.47539,-4.89949 -6.32021,-2.41971 -11.49129,-4.72762 -11.49129,-5.12868 0,-0.40105 1.36525,-1.2947 3.03389,-1.98587 3.9961,-1.65524 6.96611,-5.55607 6.96611,-9.14934 0,-1.59151 -1.34792,-5.563875 -2.99539,-8.827485 -5.25987,-10.41974 -9.06735,-10.71941 -25.43791,-2.00208 -11.21207,5.970428 -11.604375,6.288743 -10.29082,8.349995 0.75108,1.17862 5.8003,10.58045 11.22049,20.89295 5.42018,10.3125 10.02319,18.75 10.22891,18.75 0.20572,0 1.70169,-0.68656 3.32438,-1.52568 z m -11.80978,-30.09686 c -1.78193,-3.46127 -3.23988,-6.51515 -3.23988,-6.7864 0,-1.04886 12.80748,-7.591055 14.8608,-7.591055 2.50469,0 6.32326,5.434715 5.90654,8.406385 -0.16312,1.16318 -2.60645,3.18604 -6.26734,5.1888 -3.3,1.80532 -6.45455,4.13585 -7.01012,5.17895 -0.88106,1.65422 -1.42408,1.09247 -4.25,-4.39668 z m 338.23606,-12.476525 c 0.71195,-21.83516 0.67811,-22.45154 -1.33242,-24.27105 -1.36342,-1.23387 -2.8675,-1.66499 -4.43567,-1.2714 -1.35,0.33882 -8.34312,7.17877 -16.22388,15.86852 -7.61813,8.40014 -14.96936,16.501775 -16.33608,18.003605 l -2.48493,2.73062 3.66161,1.52992 3.66161,1.52991 3.53716,-3.91522 3.53717,-3.91522 8.71975,3.70432 8.71974,3.70433 0.30473,5.27165 c 0.28121,4.86463 0.55144,5.37576 3.5,6.61998 3.01213,1.27105 3.23096,1.2184 3.81799,-0.91875 0.3425,-1.24689 0.95145,-12.34894 1.35322,-24.671215 z m -15.22594,2.900287 c -2.8875,-1.137986 -5.23041,-2.346297 -5.20646,-2.685147 0.0239,-0.33884 3.2201,-3.99107 7.10256,-8.11607 3.88247,-4.125 6.78788,-6.6757 6.45647,-5.66821 -0.33141,1.00748 -0.60257,5.61998 -0.60257,10.24999 0,9.503045 0.1916,9.349285 -7.75,6.219437 z m -226.5,1.676848 c 2.5194,-2.899659 2.90132,-7.547585 1.14857,-13.978065 -2.24475,-8.23557 -7.67961,-10.83038 -16.93035,-8.0832 -2.93217,0.87076 -6.16068,1.5832 -7.17447,1.5832 -1.83377,0 -3.40825,-2.85631 -4.45954,-8.09015 -0.59364,-2.95541 0.11571,-3.34762 12.66579,-7.0032 4.125,-1.20153 7.81062,-2.357 8.19027,-2.56773 0.52541,-0.29162 -0.74372,-5.76677 -1.63449,-7.05135 -0.32304,-0.46585 -19.54026,5.65304 -22.40224,7.13303 -4.59013,2.37365 -5.55444,7.07078 -3.08978,15.05039 2.91025,9.4223 7.4145,11.3961 18.43644,8.07899 5.86309,-1.76453 7.73102,-0.96153 9.24601,3.97476 1.86816,6.08703 1.32111,6.5507 -12.32101,10.443105 l -8.0748,2.30392 0.99212,3.71698 0.99212,3.71699 11.08268,-3.31904 c 8.08114,-2.42013 11.69205,-4.02038 13.33268,-5.90863 z m 192.85846,-1.809269 c 2.28833,-2.660346 3.4376,-6.035156 7.82586,-22.980576 2.30166,-8.88798 2.4087,-10.12817 1.13681,-13.17222 -0.77224,-1.84824 -2.45417,-4.02956 -3.7376,-4.84738 -1.85868,-1.18436 -24.08271,-7.66862 -26.2833,-7.66862 -0.30262,0 -0.56756,0.7875 -0.58875,1.75 -0.0212,0.9625 -2.65707,11.2 -5.85752,22.75 -3.20046,11.55 -5.71302,21.1326 -5.58347,21.29467 0.12954,0.16207 4.90292,1.605207 10.60752,3.206965 12.84753,3.60738 19.17176,3.51375 22.48045,-0.332839 z m -16.35846,-5.852616 c -3.9875,-1.11607 -7.25,-2.54818 -7.25,-3.18248 0,-0.9397 5.68226,-22.53724 7.57639,-28.79685 0.46284,-1.52958 1.12248,-1.49895 8.21343,0.38135 4.2406,1.12448 8.331,2.62229 9.08978,3.32847 1.16718,1.08627 0.8792,3.18322 -1.87028,13.61865 -3.3536,12.72834 -5.16257,16.89093 -7.28237,16.75737 -0.67482,-0.0425 -4.48945,-0.99044 -8.47695,-2.10651 z m -151.51919,3.73702 c 0.36465,-0.28673 -8.59286,-45.74859 -9.11735,-46.27307 -0.65713,-0.65713 -6.60604,0.72953 -6.64681,1.54933 -0.0183,0.3688 1.8728,10.91133 4.20253,23.42786 l 4.23589,22.75731 3.54746,-0.639977 c 1.95111,-0.351993 3.65133,-0.721643 3.77828,-0.821453 z m 21.24842,-4.8032 c -0.0114,-0.6875 -0.67311,-7.55 -1.4704,-15.25 -2.27908,-22.01052 -2.45506,-21.87254 6.24812,-4.89875 9.9865,19.47663 10.16782,19.73208 14.00641,19.73208 5.91928,0 6.58971,-1.51122 5.90982,-13.32128 -0.33284,-5.78163 -1.14847,-16.04706 -1.81253,-22.81208 l -1.20736,-12.30003 -3.57665,0.30003 -3.57664,0.30003 0.36184,6.5 c 0.19901,3.575 0.8976,11.7875 1.55243,18.25 0.65482,6.4625 1.06913,11.75 0.92068,11.75 -0.14845,0 -3.6557,-6.68443 -7.7939,-14.8543 -4.1382,-8.16986 -8.46049,-16.04486 -9.6051,-17.5 -3.78796,-4.81561 -10.91945,-2.74724 -10.94957,3.17573 -0.007,1.47321 0.74503,11.56607 1.67227,22.42857 l 1.68589,19.75 3.82773,0 c 2.4066,0 3.82002,-0.46409 3.80696,-1.25 z m 70.31352,-3.76564 c 3.59064,-2.82439 4.44117,-6.5062 5.14585,-22.2754 0.68116,-15.24283 -0.27478,-19.40203 -4.94878,-21.53164 -1.32759,-0.60489 -8.23812,-1.40728 -15.35674,-1.78309 l -12.94294,-0.68329 -0.5734,6.39453 c -0.31538,3.51699 -0.85653,14.38203 -1.20257,24.14453 l -0.62915,17.75 13.97263,0 c 12.49457,0 14.2437,-0.21322 16.5351,-2.01564 z m -18.54275,-5.71283 -3.75,-0.39226 0,-6.78601 c 0,-3.73231 0.29238,-10.90514 0.64974,-15.93963 l 0.64975,-9.15363 8.22781,0 c 6.17407,0 8.54553,0.38283 9.50069,1.53373 1.56365,1.88407 0.53379,28.08444 -1.18533,30.15585 -1.05535,1.27162 -5.67557,1.46241 -14.09266,0.58195 z"
       fill="#0069b3" />
  </g>
</svg>
