<?xml version="1.0" encoding="UTF-8" standalone="no"?>
<!-- Created with Inkscape (http://www.inkscape.org/) -->

<svg
   xmlns:dc="http://purl.org/dc/elements/1.1/"
   xmlns:cc="http://creativecommons.org/ns#"
   xmlns:rdf="http://www.w3.org/1999/02/22-rdf-syntax-ns#"
   xmlns:svg="http://www.w3.org/2000/svg"
   xmlns="http://www.w3.org/2000/svg"
   xmlns:sodipodi="http://sodipodi.sourceforge.net/DTD/sodipodi-0.dtd"
   xmlns:inkscape="http://www.inkscape.org/namespaces/inkscape"
   id="svg4235"
   version="1.1"
   inkscape:version="0.91 r13725"
   width="100"
   height="170"
   viewBox="0 0 100 170"
   sodipodi:docname="rocket.svg">
  <metadata
     id="metadata4241">
    <rdf:RDF>
      <cc:Work
         rdf:about="">
        <dc:format>image/svg+xml</dc:format>
        <dc:type
           rdf:resource="http://purl.org/dc/dcmitype/StillImage" />
        <dc:title></dc:title>
      </cc:Work>
    </rdf:RDF>
  </metadata>
  <defs
     id="defs4239" />
  <sodipodi:namedview
     pagecolor="#ffffff"
     bordercolor="#666666"
     borderopacity="1"
     objecttolerance="10"
     gridtolerance="10"
     guidetolerance="10"
     inkscape:pageopacity="0"
     inkscape:pageshadow="2"
     inkscape:window-width="1440"
     inkscape:window-height="856"
     id="namedview4237"
     showgrid="false"
     fit-margin-top="0"
     fit-margin-left="0"
     fit-margin-right="0"
     fit-margin-bottom="0"
     inkscape:zoom="5.2090309"
     inkscape:cx="63.343514"
     inkscape:cy="84.427865"
     inkscape:window-x="0"
     inkscape:window-y="0"
     inkscape:window-maximized="1"
     inkscape:current-layer="g4245" />
  <g
     id="g4245"
     transform="translate(-58.051183,131.03782)">
    <path
       style="fill:#258cb0"
       d="M 62.058791,35.799037 C 60.392937,33.172254 59.671677,30.808903 59.477393,27.34058 59.118157,20.927185 61.265886,16.482668 66.413572,12.98695 67.438107,12.291186 68.513648,11.359808 68.803667,10.917215 69.716824,9.5235086 70.075914,7.6205837 69.689689,6.2217407 69.236241,4.5794708 67.321931,2.479773 65.828865,1.9870198 63.527997,1.2276674 60.33076,2.365392 59.150445,4.3635227 58.373757,5.6783535 58.051184,5.5911072 58.051184,4.06621 c 0,-3.3878907 2.037278,-7.4529849 5.176999,-10.3299687 4.009679,-3.6741508 8.340165,-5.2857413 13.324229,-4.9586183 2.497799,0.163926 5.63681,0.972185 5.989002,1.5420801 0.08586,0.1388626 -0.0158,1.1781528 -0.226471,2.3094819 -0.318707,1.7138631 -0.28066,2.7064594 0.228164,5.950921 0.92706,5.9112774 0.585937,8.8940164 -1.428563,12.490992 -0.482068,0.860762 -0.78275,1.658781 -0.668143,1.773371 0.413765,0.413765 3.137176,-1.305698 5.189711,-3.2766544 2.465527,-2.3675271 4.122638,-5.401155 4.741248,-8.6797565 0.22997,-1.2188237 0.558837,-2.2160376 0.730783,-2.2160376 0.564839,0 1.331586,2.4033328 1.694242,5.3105333 0.841056,6.7418962 -2.319749,13.4890242 -7.783646,16.6151422 -1.01017,0.577973 -3.927999,1.742499 -6.484035,2.587839 -5.592938,1.849718 -8.015864,3.092543 -10.485895,5.378644 -2.227147,2.061307 -3.56467,4.382728 -3.91076,6.787591 -0.139934,0.972212 -0.437811,1.828803 -0.661985,1.903528 -0.224156,0.07474 -0.861947,-0.580592 -1.417273,-1.456261 z M 121.22278,-3.5199418 c -1.46853,-0.7657198 -2.10178,-1.4295167 -2.47903,-2.5986773 -0.24814,-0.7691179 -2.02201,-19.6470869 -2.02201,-21.5190509 0,-0.147837 1.23759,-0.983389 2.75019,-1.856807 5.4402,-3.141319 11.20641,-7.353884 16.33468,-11.933464 1.4613,-1.304935 2.7809,-2.231685 3.03751,-2.133217 0.2495,0.09574 1.35949,1.376191 2.46656,2.845402 2.92523,3.882038 2.9665,4.479491 0.63358,9.168998 -3.23609,6.504955 -13.83939,26.2784971 -14.45813,26.9621864 -1.44562,1.5974274 -4.30829,2.0840164 -6.26335,1.0646298 z M 89.20532,-8.0115472 c -0.526717,-0.5823083 -0.639874,-1.1467281 -0.588539,-2.9357408 0.119556,-4.163416 3.03387,-13.304488 5.434329,-17.045282 1.393458,-2.171563 2.287885,-2.421131 3.938029,-1.098849 1.59277,1.276311 2.417461,1.704363 4.441951,2.305569 2.4639,0.731699 2.65835,1.775218 0.95647,5.13266 -2.11277,4.16796 -7.739846,11.13943 -10.545497,13.0649229 -1.887227,1.2951869 -2.848855,1.4476874 -3.636743,0.5767199 z M 70.583248,-30.343891 c -2.257313,-0.675239 -4.218143,-3.824744 -3.703143,-5.948071 0.11634,-0.479584 1.875525,-4.022165 3.909325,-7.872424 6.191577,-11.72145 11.315284,-21.270785 11.854189,-22.093246 0.932625,-1.423392 2.764285,-2.075025 5.832588,-2.075025 4.018666,0 3.971363,-0.07496 3.157244,5.000328 -0.551612,3.43874 -0.671846,5.835298 -0.688081,13.713553 l -0.01976,9.546603 -8.186744,4.685442 c -10.048636,5.75105 -9.939494,5.705784 -12.15574,5.04284 z m 32.602002,-2.607128 c -2.58644,-1.400367 -4.932797,-2.738494 -5.21418,-2.973607 -0.884627,-0.7392 -1.417527,-6.541244 -1.415094,-15.406902 0.0033,-8.639029 0.277048,-11.52829 1.707744,-17.962984 3.45707,-15.548355 13.10934,-32.211328 24.55814,-42.395208 2.36858,-2.10692 2.72861,-2.31264 4.04709,-2.31264 3.51683,0 12.35096,3.04163 17.66295,6.08145 6.51629,3.729 13.19257,9.563149 13.19257,11.528517 0,1.960868 -1.36182,8.97091 -2.51376,12.939873 -6.58607,22.691496 -21.03384,40.131284 -42.40282,51.184191 -2.06098,1.066007 -4.0111,1.921372 -4.33363,1.900814 -0.32254,-0.02032 -2.7026,-1.183138 -5.28901,-2.583504 z m 34.89648,-51.261932 c 3.84166,-2.090886 5.29933,-6.88546 3.29052,-10.823066 -0.94193,-1.846308 -3.39946,-3.838963 -5.29559,-4.293833 -4.81245,-1.15449 -9.75168,2.252881 -10.24888,7.0703 -0.6976,6.75936 6.24402,11.317609 12.25395,8.046599 z m 17.80932,-22.665919 c -3.90093,-3.45971 -13.10675,-8.5103 -19.33462,-10.60758 -1.98511,-0.66848 -3.33356,-1.30163 -3.33356,-1.5652 0,-0.56867 4.76098,-3.41959 10.5007,-6.2879 5.01756,-2.50745 8.87645,-3.9972 10.35388,-3.9972 2.68038,0 3.45466,3.27867 3.85872,16.33961 0.25521,8.25086 0.27909,8.17958 -2.04512,6.11827 z"
       id="path4249"
       inkscape:connector-curvature="0"
       sodipodi:nodetypes="ssscssssssccsscsssssssccsscsssssscsccssssscccscssscsccsccssssssscsssssssssssss" />
    <g
       transform="matrix(0.88383623,0.46779646,-0.46779646,0.88383623,0,0)"
       style="font-weight:bold;font-size:16.25px;line-height:85.00000238%;font-family:Corbel;-inkscape-font-specification:'Corbel, Bold';text-align:center;letter-spacing:0px;word-spacing:0px;writing-mode:lr-tb;text-anchor:middle;fill:#ffffff;fill-opacity:1;stroke:none;stroke-width:1px;stroke-linecap:butt;stroke-linejoin:miter;stroke-opacity:1"
       id="text4272">
      <path
         d="m 64.865753,-121.34009 -3.999023,0 -1.039429,2.70569 -2.070923,0 4.213257,-10.61645 1.777344,0 4.213257,10.61645 -2.055054,0 -1.039429,-2.70569 z m -2.015381,-5.35583 q -0.55542,1.66626 -0.991821,2.78503 l -0.36499,0.94422 2.745361,0 -0.36499,-0.94422 q -0.436401,-1.12671 -0.991821,-2.78503 l -0.03174,0 z"
         style=""
         id="path4281" />
      <path
         d="m 71.449005,-121.79602 q -0.201416,0 -0.396728,-0.006 -0.195313,-0.006 -0.366211,-0.0244 l 0,3.19214 -1.495362,0 0,-8.1665 2.355957,0 q 0.592041,0 1.031495,0.0549 0.445556,0.0488 0.793457,0.15259 0.836181,0.25634 1.287841,0.81787 0.451661,0.56152 0.451661,1.42822 0,0.59204 -0.244141,1.06812 -0.244141,0.46997 -0.714111,0.79956 -0.469971,0.32959 -1.147461,0.50659 -0.677491,0.177 -1.556397,0.177 z m -0.762939,-1.28784 q 0.128174,0.0183 0.323486,0.0305 0.201416,0.006 0.415039,0.006 0.604248,0 1.013184,-0.0977 0.408935,-0.0976 0.659179,-0.26855 0.250244,-0.177 0.360108,-0.42114 0.109863,-0.25025 0.109863,-0.54322 0,-0.36011 -0.164795,-0.62256 -0.164795,-0.26245 -0.57373,-0.40893 -0.213623,-0.0732 -0.531006,-0.10376 -0.311279,-0.0366 -0.769043,-0.0366 l -0.842285,0 0,2.46582 z"
         style="font-style:normal;font-variant:normal;font-weight:bold;font-stretch:normal;font-size:12.5px;line-height:100%;font-family:Corbel;-inkscape-font-specification:'Corbel, Bold';text-align:center;writing-mode:lr-tb;text-anchor:middle"
         id="path4283" />
      <path
         d="m 82.728302,-124.34729 q 0,0.85449 -0.476074,1.45264 -0.469971,0.59204 -1.45874,0.8789 l 0,0.0244 2.429199,3.35693 -1.794434,0 -2.22168,-3.16162 -1.02539,0 0,3.16162 -1.495361,0 0,-8.1665 2.48413,0 q 0.616455,0 1.147461,0.0732 0.531006,0.0671 0.909424,0.20752 0.720215,0.27466 1.11084,0.81787 0.390625,0.53711 0.390625,1.35498 z m -3.808594,1.30005 q 0.512696,0 0.866699,-0.0427 0.360108,-0.0488 0.604249,-0.14038 0.45166,-0.1709 0.622558,-0.46386 0.177002,-0.29908 0.177002,-0.6836 0,-0.32959 -0.140381,-0.57983 -0.134277,-0.25635 -0.463867,-0.40283 -0.213623,-0.0977 -0.537109,-0.14038 -0.323487,-0.0488 -0.799561,-0.0488 l -1.068115,0 0,2.50244 0.738525,0 z"
         style="font-style:normal;font-variant:normal;font-weight:bold;font-stretch:normal;font-size:12.5px;line-height:100%;font-family:Corbel;-inkscape-font-specification:'Corbel, Bold';text-align:center;writing-mode:lr-tb;text-anchor:middle"
         id="path4285" />
      <path
         d="m 84.54715,-118.6344 0,-8.1665 1.495361,0 0,8.1665 -1.495361,0 z"
         style="font-style:normal;font-variant:normal;font-weight:bold;font-stretch:normal;font-size:12.5px;line-height:100%;font-family:Corbel;-inkscape-font-specification:'Corbel, Bold';text-align:center;writing-mode:lr-tb;text-anchor:middle"
         id="path4287" />
      <path
         d="m 89.484894,-126.8009 0,6.91528 3.820801,0 0,1.25122 -5.316163,0 0,-8.1665 1.495362,0 z"
         style="font-style:normal;font-variant:normal;font-weight:bold;font-stretch:normal;font-size:12.5px;line-height:100%;font-family:Corbel;-inkscape-font-specification:'Corbel, Bold';text-align:center;writing-mode:lr-tb;text-anchor:middle"
         id="path4289" />
      <path
         d="m 65.86734,-110.16186 q 0,0.57128 -0.238037,1.06323 -0.230103,0.49194 -0.6427,0.94421 -0.404663,0.45227 -0.968018,0.88867 -0.563354,0.42847 -1.221924,0.88074 l 0,0.0317 q 1.094971,-0.0635 1.626587,-0.0635 l 2.078858,0 0,1.59485 -6.720581,0 0,-1.15051 q 0.83313,-0.57129 1.586914,-1.11878 0.753784,-0.55542 1.317138,-1.05529 0.571289,-0.50782 0.904541,-0.98389 0.333252,-0.47607 0.333252,-0.93628 0,-0.27771 -0.103149,-0.46814 -0.103149,-0.19043 -0.293579,-0.30945 -0.182495,-0.12695 -0.436402,-0.18249 -0.245971,-0.0555 -0.53955,-0.0555 -0.571289,0 -1.261597,0.1825 -0.690308,0.1825 -1.428223,0.53955 l 0,-1.59485 q 0.253907,-0.13489 0.571289,-0.26184 0.325318,-0.13489 0.698243,-0.23804 0.372924,-0.11108 0.793457,-0.17456 0.428466,-0.0714 0.880737,-0.0714 0.674438,0 1.237793,0.16663 0.563354,0.16662 0.968017,0.49194 0.404664,0.31738 0.626832,0.79346 0.230102,0.46814 0.230102,1.08704 z"
         style=""
         id="path4291" />
      <path
         d="m 72.754547,-108.66223 q 0,-1.20606 -0.444336,-1.84876 -0.444336,-0.65063 -1.277466,-0.65063 -0.841064,0 -1.2854,0.65063 -0.444336,0.6427 -0.444336,1.84876 0,1.20605 0.444336,1.85669 0.444336,0.6427 1.2854,0.6427 0.83313,0 1.277466,-0.6427 0.444336,-0.65064 0.444336,-1.85669 z m 1.94397,0 q 0,0.86487 -0.238037,1.60278 -0.230103,0.73792 -0.690308,1.27747 -0.460205,0.53955 -1.150513,0.849 -0.682373,0.30945 -1.586914,0.30945 -0.888672,0 -1.571045,-0.30945 -0.682373,-0.30945 -1.150512,-0.849 -0.46814,-0.53955 -0.714112,-1.27747 -0.238037,-0.73791 -0.238037,-1.60278 0,-0.86487 0.238037,-1.60278 0.245972,-0.73792 0.714112,-1.27747 0.468139,-0.54749 1.150512,-0.849 0.682373,-0.30945 1.571045,-0.30945 0.904541,0 1.586914,0.30945 0.690308,0.30151 1.150513,0.849 0.460205,0.53955 0.690308,1.27747 0.238037,0.73791 0.238037,1.60278 z"
         style=""
         id="path4293" />
      <path
         d="m 78.61026,-106.41675 0,-4.09424 -2.67395,0.76172 0,-1.66626 3.110351,-1.09497 1.444092,0 0,6.09375 2.237549,0 0,1.59485 -6.633301,0 0,-1.59485 2.515259,0 z"
         style=""
         id="path4295" />
      <path
         d="m 86.417877,-103.15564 q 1.285401,0 2.047119,-0.76172 0.761719,-0.76172 0.975952,-2.42004 l -0.03174,0 q -0.404663,0.2063 -0.936279,0.31738 -0.531616,0.10315 -1.102905,0.10315 -0.706177,0 -1.325074,-0.2063 -0.610962,-0.2063 -1.063232,-0.61096 -0.452271,-0.4126 -0.714111,-1.01563 -0.261841,-0.61096 -0.261841,-1.40441 0,-0.75379 0.238037,-1.39649 0.238037,-0.65063 0.690308,-1.12671 0.460205,-0.47607 1.126709,-0.74585 0.666503,-0.27771 1.523437,-0.27771 0.936279,0 1.650391,0.33325 0.722046,0.33326 1.213989,0.97596 0.491943,0.6427 0.74585,1.58691 0.253906,0.93628 0.253906,2.15027 0,0.80933 -0.119019,1.57898 -0.111084,0.76965 -0.36499,1.44409 -0.245972,0.68237 -0.634766,1.24573 -0.380859,0.57129 -0.928344,0.97595 -0.539551,0.4126 -1.245728,0.63477 -0.706177,0.2301 -1.586914,0.2301 -0.674438,0 -1.2854,-0.12695 -0.603028,-0.12696 -1.063233,-0.35706 l 0,-1.64246 q 0.515747,0.25391 1.102905,0.38086 0.587159,0.13489 1.094971,0.13489 z m 1.190186,-4.37195 q 0.476074,0 0.968017,-0.10315 0.499878,-0.10315 0.92041,-0.32531 -0.01587,-0.86487 -0.166625,-1.45997 -0.150757,-0.60302 -0.404664,-0.96801 -0.253906,-0.37293 -0.603027,-0.53955 -0.349121,-0.16663 -0.769653,-0.16663 -0.349121,0 -0.6427,0.11108 -0.29358,0.11109 -0.507813,0.34119 -0.214233,0.22217 -0.333252,0.56336 -0.119018,0.34118 -0.119018,0.80139 0,0.48401 0.119018,0.81726 0.119019,0.33325 0.341187,0.53955 0.222168,0.2063 0.523681,0.30151 0.309449,0.0873 0.674439,0.0873 z"
         style=""
         id="path4297" />
    </g>
  </g>
</svg>
