<svg xmlns="http://www.w3.org/2000/svg" width="100" height="170"><path d="M4.008 166.837c-1.666-2.627-2.388-4.99-2.582-8.459-.359-6.413 1.789-10.858 6.936-14.353 1.025-.696 2.1-1.627 2.39-2.07.914-1.394 1.273-3.297.887-4.695-.454-1.643-2.368-3.742-3.861-4.235-2.301-.76-5.498.378-6.679 2.376C.323 136.716 0 136.63 0 135.104c0-3.388 2.037-7.453 5.177-10.33 4.01-3.674 8.34-5.286 13.324-4.959 2.498.164 5.637.973 5.99 1.543.085.138-.017 1.178-.227 2.309-.319 1.714-.28 2.706.228 5.95.927 5.912.586 8.895-1.429 12.492-.482.86-.782 1.659-.668 1.773.414.414 3.137-1.305 5.19-3.276 2.465-2.368 4.123-5.402 4.741-8.68.23-1.219.559-2.216.731-2.216.565 0 1.332 2.403 1.694 5.31.841 6.742-2.32 13.49-7.783 16.616-1.01.577-3.928 1.742-6.484 2.587-5.593 1.85-8.016 3.093-10.486 5.379-2.228 2.061-3.565 4.383-3.911 6.788-.14.972-.438 1.828-.662 1.903-.224.075-.862-.58-1.417-1.456zm59.164-39.32c-1.469-.765-2.102-1.429-2.48-2.598-.248-.769-2.021-19.647-2.021-21.519 0-.148 1.237-.983 2.75-1.857 5.44-3.141 11.206-7.354 16.334-11.933 1.462-1.305 2.781-2.232 3.038-2.133.25.095 1.36 1.376 2.466 2.845 2.926 3.882 2.967 4.48.634 9.17-3.236 6.504-13.84 26.278-14.458 26.961-1.446 1.598-4.308 2.084-6.263 1.065zm-32.018-4.49c-.527-.583-.64-1.147-.588-2.936.12-4.164 3.033-13.305 5.434-17.046 1.393-2.171 2.288-2.42 3.938-1.099 1.593 1.277 2.417 1.705 4.442 2.306 2.464.732 2.658 1.775.956 5.133-2.112 4.168-7.74 11.14-10.545 13.065-1.887 1.295-2.849 1.447-3.637.576zm-18.622-22.333c-2.257-.675-4.218-3.825-3.703-5.948.116-.48 1.875-4.022 3.91-7.873 6.19-11.721 11.315-21.27 11.853-22.093.933-1.423 2.765-2.075 5.833-2.075 4.019 0 3.971-.075 3.157 5-.551 3.44-.672 5.836-.688 13.714l-.02 9.547-8.186 4.685c-10.049 5.751-9.94 5.706-12.156 5.043zm32.602-2.607c-2.586-1.4-4.933-2.739-5.214-2.974-.885-.739-1.418-6.541-1.415-15.407.003-8.639.277-11.528 1.708-17.963C43.67 46.195 53.322 29.532 64.77 19.348c2.368-2.107 2.728-2.313 4.047-2.313 3.517 0 12.35 3.042 17.663 6.082 6.516 3.729 13.192 9.563 13.192 11.528 0 1.961-1.362 8.971-2.513 12.94-6.587 22.692-21.034 40.132-42.403 51.184-2.061 1.066-4.011 1.922-4.334 1.901-.322-.02-2.703-1.183-5.289-2.583zm34.897-51.262c3.841-2.091 5.299-6.886 3.29-10.823-.942-1.847-3.4-3.84-5.296-4.294-4.812-1.155-9.751 2.253-10.248 7.07-.698 6.76 6.244 11.318 12.254 8.047zM97.84 24.159c-3.901-3.46-13.107-8.51-19.335-10.608-1.985-.668-3.333-1.301-3.333-1.565 0-.568 4.76-3.42 10.5-6.288 5.018-2.507 8.877-3.997 10.354-3.997 2.68 0 3.455 3.279 3.859 16.34.255 8.25.28 8.18-2.045 6.118z" fill="#258cb0"/><g fill="#fff"><path d="M56.042 54.137l-3.534-1.87-2.185 1.904-1.83-.968 8.69-7.413 1.57.832-1.242 11.354-1.816-.961.347-2.878zm.724-5.676q-1.27 1.212-2.18 1.997l-.764.664 2.427 1.284.119-1.005q.141-1.2.426-2.926l-.028-.014zM62.074 56.814q-.178-.095-.348-.191-.17-.097-.312-.193l-1.494 2.82-1.321-.7 3.82-7.217 2.082 1.102q.524.277.886.531.371.252.63.506.62.618.756 1.325.136.708-.27 1.474-.276.523-.715.83-.435.301-1.005.372-.57.072-1.25-.089-.682-.16-1.46-.571zm-.072-1.495q.105.076.272.178.175.1.364.2.534.282.94.387.408.105.709.07.304-.038.515-.203.214-.17.352-.429.168-.318.145-.627-.023-.309-.316-.63-.154-.164-.42-.34-.258-.178-.663-.392l-.745-.394-1.153 2.18zm11.234 4.516q-.4.755-1.1 1.061-.692.304-1.7.095l-.012.021.577 4.104-1.586-.84-.485-3.833-.906-.48-1.48 2.794-1.32-.7 3.82-7.217 2.195 1.162q.545.288.98.601.438.308.707.61.508.579.599 1.242.094.657-.289 1.38zm-3.974-.632q.453.24.786.367.341.126.6.159.479.06.767-.119.296-.181.476-.521.154-.292.147-.578.002-.29-.221-.573-.143-.187-.41-.376-.262-.194-.683-.417l-.944-.5-1.17 2.212.652.346zm2.909 6.532l3.82-7.218 1.322.7-3.82 7.218-1.322-.7zm8.185-4.908L77.12 66.94l3.377 1.788-.585 1.106-4.7-2.487 3.821-7.218 1.322.7zM51.698 64.485q-.267.505-.708.829-.433.327-1.01.534-.569.21-1.27.332-.699.115-1.493.207l-.015.028q.998.456 1.468.705l1.837.972-.746 1.41-5.94-3.144.538-1.017q1.004-.115 1.926-.246.926-.139 1.658-.317.743-.182 1.26-.446.517-.265.732-.672.13-.245.128-.462-.002-.217-.114-.41-.102-.198-.3-.366-.192-.164-.452-.302-.505-.267-1.2-.429-.696-.161-1.515-.19l.746-1.41q.288 0 .628.035.35.033.728.117.382.076.783.217.412.137.812.348.596.316 1.016.727.42.41.625.887.21.47.183.995-.015.521-.305 1.068zm5.386 4.548q.564-1.066.472-1.842-.089-.783-.825-1.173-.743-.393-1.44-.026-.694.36-1.258 1.426-.564 1.066-.476 1.849.092.776.836 1.17.736.389 1.43.029.697-.368 1.26-1.433zm1.718.909q-.405.764-.96 1.305-.549.545-1.208.806-.66.262-1.414.212-.748-.045-1.547-.468-.786-.416-1.244-1.009-.458-.593-.62-1.288-.161-.696-.033-1.464.134-.763.539-1.527.405-.765.96-1.306.563-.537 1.229-.795.67-.265 1.414-.212.748.046 1.533.462.8.423 1.258 1.015.47.59.62 1.289.154.692.012 1.452-.135.764-.54 1.528zm2.407 3.814l1.915-3.618-2.72-.578.78-1.473 3.261.488 1.276.675-2.85 5.386 1.977 1.047-.746 1.41-5.862-3.104.746-1.41 2.223 1.177zm5.375 6.535q1.136.601 2.166.285 1.03-.317 1.994-1.683l-.028-.015q-.454-.007-.976-.157-.518-.158-1.023-.425-.624-.33-1.074-.802-.444-.468-.654-1.038-.207-.576-.156-1.231.054-.663.425-1.364.353-.666.864-1.123.514-.464 1.137-.673.63-.205 1.345-.132.719.066 1.476.467.828.438 1.303 1.067.482.632.616 1.43.134.799-.083 1.752-.213.946-.781 2.02-.379.714-.844 1.339-.458.628-.998 1.106-.537.488-1.144.804-.604.326-1.277.428-.67.112-1.398-.022-.732-.127-1.51-.539-.596-.315-1.077-.713-.474-.395-.773-.813l.769-1.452q.337.466.796.853.456.394.905.631zm3.097-3.307q.42.222.904.361.49.143.966.143.39-.771.535-1.368.15-.603.095-1.045-.05-.448-.28-.759-.23-.31-.602-.507-.31-.163-.62-.202-.312-.04-.609.064-.293.096-.558.342-.265.245-.48.652-.226.428-.277.778-.05.35.049.637.1.286.322.511.232.222.555.393z"/></g></svg>