<?xml version="1.0" encoding="UTF-8" standalone="no"?>
<!-- Created with Inkscape (http://www.inkscape.org/) -->

<svg
   xmlns:dc="http://purl.org/dc/elements/1.1/"
   xmlns:cc="http://creativecommons.org/ns#"
   xmlns:rdf="http://www.w3.org/1999/02/22-rdf-syntax-ns#"
   xmlns:svg="http://www.w3.org/2000/svg"
   xmlns="http://www.w3.org/2000/svg"
   xmlns:sodipodi="http://sodipodi.sourceforge.net/DTD/sodipodi-0.dtd"
   xmlns:inkscape="http://www.inkscape.org/namespaces/inkscape"
   id="svg4199"
   version="1.1"
   inkscape:version="0.91 r13725"
   xml:space="preserve"
   width="250"
   height="250"
   viewBox="0 0 250 250"
   sodipodi:docname="favicon.svg"
   inkscape:export-filename="/Users/tbieniek/Code/projektitekt.de/public/favicon.png"
   inkscape:export-xdpi="184.32001"
   inkscape:export-ydpi="184.32001"><metadata
     id="metadata4205"><rdf:RDF><cc:Work
         rdf:about=""><dc:format>image/svg+xml</dc:format><dc:type
           rdf:resource="http://purl.org/dc/dcmitype/StillImage" /><dc:title></dc:title></cc:Work></rdf:RDF></metadata><defs
     id="defs4203"><clipPath
       clipPathUnits="userSpaceOnUse"
       id="clipPath4261"><path
         d="m 939.945,886.371 c 26.18,-3.18 53.543,-5.562 82.095,-7.141 28.56,-1.589 55.52,-2.371 80.91,-2.371 91.21,0 168.95,7.141 233.21,21.411 64.25,14.281 116.6,35.101 157.05,62.48 40.46,27.359 69.8,60.67 88.05,99.94 18.23,39.26 27.37,83.88 27.37,133.85 0,61.88 -14.87,112.63 -44.62,152.3 -29.74,39.65 -71.99,69.8 -126.71,90.43 -34.13,12.68 -73.39,21.61 -117.8,26.77 -44.43,5.15 -95.99,7.73 -154.68,7.73 l -224.875,0 0,-585.399 z M 932.789,55.8906 c -82.68,0 -175.355,25.8008 -174.695,25.6407 l -11.832,2.8593 -0.258,1562.2894 440.946,0 c 65.76,0 126.56,-3.98 182.43,-11.9 55.85,-7.94 107.15,-20.23 153.89,-36.88 95.09,-34.12 167.2,-85.08 216.31,-152.9 49.12,-67.82 73.7,-151.31 73.7,-250.46 0,-80.9 -16.04,-152.11 -48.13,-213.571 -32.09,-61.481 -78.63,-112.848 -139.62,-154.09 -61,-41.25 -135.25,-72.379 -222.79,-93.399 -87.51,-21.031 -186.73,-31.531 -297.63,-31.531 -53.08,0 -108.126,2.379 -165.165,7.133 L 939.609,55.8984"
         id="path4263"
         inkscape:connector-curvature="0" /></clipPath><linearGradient
       x1="0"
       y1="0"
       x2="1"
       y2="0"
       gradientUnits="userSpaceOnUse"
       gradientTransform="matrix(1067.28,0,0,-1067.28,746.003,851.28)"
       spreadMethod="pad"
       id="linearGradient4265"><stop
         style="stop-opacity:1;stop-color:#1d3c85"
         offset="0"
         id="stop4267" /><stop
         style="stop-opacity:1;stop-color:#1d3c85"
         offset="0.31438288"
         id="stop4269" /><stop
         style="stop-opacity:1;stop-color:#1b294a"
         offset="1"
         id="stop4271" /></linearGradient><clipPath
       clipPathUnits="userSpaceOnUse"
       id="clipPath4279"><path
         d="m 712.715,92.8203 c -174.453,42.2577 -337.957,141.9807 -462,280.2187 -31.586,34.16 -59.512,71.652 -85.953,110.25 l -19.074,29.52 c -6.262,9.91 -11.77,20.261 -17.696,30.402 -12.097,20.16 -21.941,41.5 -32.7537,62.449 -40.0899,85.18 -68.5156,176.442 -83.1328,270.36 -29.7618,187.72 -4.40628,385.39 73.3789,561.61 18.7696,44.39 42.5036,86.46 67.4806,127.67 13.332,20.06 26.023,40.61 40.672,59.77 7.226,9.64 14,19.65 21.648,28.97 l 22.801,28.06 c 31.25,36.69 64.644,71.6 100.875,103.49 17.668,16.45 36.711,31.31 55.484,46.5 9.383,7.59 19.399,14.37 29.086,21.59 9.762,7.11 19.457,14.32 29.692,20.75 l 30.445,19.66 31.348,18.2 15.726,8.98 16.125,8.28 c 10.781,5.44 21.426,11.17 32.344,16.32 43.73,20.56 88.715,38.33 134.719,52.96 92.367,27.94 188.273,44.19 284.511,45.56 192.299,3.48 384.829,-48.75 546.509,-149.28 80.74,-50.27 154.18,-111.49 216.54,-181.94 31.7,-34.74 59.96,-72.42 86.36,-111 l 18.61,-29.76 9.26,-14.85 8.51,-15.32 16.84,-30.63 c 5.38,-10.32 10.24,-20.92 15.25,-31.41 79.88,-168.06 106.8,-357.58 79.05,-534.688 -2.91,44.797 -5.33,89.158 -13.54,132.758 -2.84,21.88 -8.22,43.39 -12.4,64.89 -2.46,10.71 -5.44,21.3 -8.05,31.92 -2.72,10.61 -5.23,21.23 -8.73,31.61 -25.26,83.64 -59.94,163.57 -105.56,236.22 -21.85,36.84 -47.65,71.05 -73.97,104.34 -27.57,32.39 -55.64,64.16 -87,92.59 -30.44,29.31 -63.7,55.39 -97.38,80.33 -34.3,24.2 -69.92,46.21 -106.64,65.96 -37.07,19.07 -74.69,37.02 -113.94,50.67 -9.64,3.8 -19.47,7.14 -29.36,10.26 -9.88,3.12 -19.61,6.7 -29.59,9.47 -19.99,5.47 -39.85,11.26 -60.16,15.33 -20.06,4.98 -40.59,7.81 -60.88,11.52 -20.53,2.27 -40.85,5.94 -61.46,7.11 -41.05,3.97 -82.35,4.17 -123.41,2.21 -41.097,-1.71 -81.929,-7.01 -122.327,-14.04 -40.434,-7.12 -80.039,-18.05 -119.051,-30.39 -38.859,-12.93 -76.91,-28.13 -113.813,-45.8 -36.488,-18.42 -72.488,-37.99 -106.214,-61.16 -8.731,-5.34 -16.95,-11.43 -25.25,-17.4 -8.231,-6.07 -16.801,-11.68 -24.778,-18.09 -15.953,-12.8 -32.262,-25.19 -47.312,-39.11 -31.075,-26.72 -59.367,-56.57 -86.59,-87.18 l -19.902,-23.44 c -6.711,-7.76 -12.559,-16.19 -18.903,-24.24 -12.879,-15.99 -23.91,-33.28 -35.703,-50.07 -5.609,-8.57 -10.801,-17.42 -16.25,-26.11 l -8.094,-13.08 -7.429,-13.48 -14.871,-26.95 -13.692,-27.59 c -17.582,-37.1 -33.461,-75.2 -45.574,-114.6 -3.266,-9.78 -6.434,-19.59 -8.93,-29.6 l -8.254,-29.83 c -4.41,-20.16 -9.687,-40.19 -12.84,-60.64 -4.074,-20.31 -6.367,-40.89 -9.066,-61.46 -1.215,-10.29 -1.754,-20.65 -2.68,-30.99 l -1.289,-15.52 -0.629,-15.55 c -2.461,-41.521 -0.789,-83.232 2.657,-124.81 3.464,-41.64 10.496,-82.949 19.25,-123.992 9.25,-40.969 21.773,-81.156 35.836,-120.988 29.949,-78.871 69.468,-154.961 119.906,-224.32 49.547,-70.051 109.625,-133.399 176.871,-189.129 67.629,-55.309 143,-102.641 224.336,-140.3207 z"
         id="path4281"
         inkscape:connector-curvature="0" /></clipPath><linearGradient
       x1="0"
       y1="0"
       x2="1"
       y2="0"
       gradientUnits="userSpaceOnUse"
       gradientTransform="matrix(2090.51,0,0,-2090.51,-13.3796,1068.68)"
       spreadMethod="pad"
       id="linearGradient4283"><stop
         style="stop-opacity:1;stop-color:#1d3c85"
         offset="0"
         id="stop4285" /><stop
         style="stop-opacity:1;stop-color:#1d3c85"
         offset="0.31438288"
         id="stop4287" /><stop
         style="stop-opacity:1;stop-color:#1b294a"
         offset="1"
         id="stop4289" /></linearGradient></defs><sodipodi:namedview
     pagecolor="#ffffff"
     bordercolor="#666666"
     borderopacity="1"
     objecttolerance="10"
     gridtolerance="10"
     guidetolerance="10"
     inkscape:pageopacity="0"
     inkscape:pageshadow="2"
     inkscape:window-width="1440"
     inkscape:window-height="855"
     id="namedview4201"
     showgrid="false"
     inkscape:zoom="2.2204276"
     inkscape:cx="127.79348"
     inkscape:cy="140.38167"
     inkscape:window-x="0"
     inkscape:window-y="0"
     inkscape:window-maximized="0"
     inkscape:current-layer="g4209"
     fit-margin-top="0"
     fit-margin-left="0"
     fit-margin-right="0"
     fit-margin-bottom="0" /><g
     id="g4207"
     inkscape:groupmode="layer"
     inkscape:label="ink_ext_XXXXXX"
     transform="matrix(1.25,0,0,-1.25,1.0279046e-4,256.66209)"><g
       id="g4209"
       transform="matrix(0.1,0,0,0.1,-0.29815674,0.43717359)"><g
         id="g4257"
         transform="matrix(0.99702727,0,0,0.99702727,2.9815674,3.118188)"><g
           id="g4259"
           clip-path="url(#clipPath4261)"><path
             d="m 939.945,886.371 c 26.18,-3.18 53.543,-5.562 82.095,-7.141 28.56,-1.589 55.52,-2.371 80.91,-2.371 91.21,0 168.95,7.141 233.21,21.411 64.25,14.281 116.6,35.101 157.05,62.48 40.46,27.359 69.8,60.67 88.05,99.94 18.23,39.26 27.37,83.88 27.37,133.85 0,61.88 -14.87,112.63 -44.62,152.3 -29.74,39.65 -71.99,69.8 -126.71,90.43 -34.13,12.68 -73.39,21.61 -117.8,26.77 -44.43,5.15 -95.99,7.73 -154.68,7.73 l -224.875,0 0,-585.399 z M 932.789,55.8906 c -82.68,0 -175.355,25.8008 -174.695,25.6407 l -11.832,2.8593 -0.258,1562.2894 440.946,0 c 65.76,0 126.56,-3.98 182.43,-11.9 55.85,-7.94 107.15,-20.23 153.89,-36.88 95.09,-34.12 167.2,-85.08 216.31,-152.9 49.12,-67.82 73.7,-151.31 73.7,-250.46 0,-80.9 -16.04,-152.11 -48.13,-213.571 -32.09,-61.481 -78.63,-112.848 -139.62,-154.09 -61,-41.25 -135.25,-72.379 -222.79,-93.399 -87.51,-21.031 -186.73,-31.531 -297.63,-31.531 -53.08,0 -108.126,2.379 -165.165,7.133 L 939.609,55.8984"
             style="fill:url(#linearGradient4265);fill-opacity:1;fill-rule:nonzero;stroke:none"
             id="path4273"
             inkscape:connector-curvature="0" /></g></g><g
         id="g4275"
         transform="matrix(0.99702727,0,0,0.99702727,2.9815674,3.118188)"><g
           id="g4277"
           clip-path="url(#clipPath4279)"><path
             d="m 712.715,92.8203 c -174.453,42.2577 -337.957,141.9807 -462,280.2187 -31.586,34.16 -59.512,71.652 -85.953,110.25 l -19.074,29.52 c -6.262,9.91 -11.77,20.261 -17.696,30.402 -12.097,20.16 -21.941,41.5 -32.7537,62.449 -40.0899,85.18 -68.5156,176.442 -83.1328,270.36 -29.7618,187.72 -4.40628,385.39 73.3789,561.61 18.7696,44.39 42.5036,86.46 67.4806,127.67 13.332,20.06 26.023,40.61 40.672,59.77 7.226,9.64 14,19.65 21.648,28.97 l 22.801,28.06 c 31.25,36.69 64.644,71.6 100.875,103.49 17.668,16.45 36.711,31.31 55.484,46.5 9.383,7.59 19.399,14.37 29.086,21.59 9.762,7.11 19.457,14.32 29.692,20.75 l 30.445,19.66 31.348,18.2 15.726,8.98 16.125,8.28 c 10.781,5.44 21.426,11.17 32.344,16.32 43.73,20.56 88.715,38.33 134.719,52.96 92.367,27.94 188.273,44.19 284.511,45.56 192.299,3.48 384.829,-48.75 546.509,-149.28 80.74,-50.27 154.18,-111.49 216.54,-181.94 31.7,-34.74 59.96,-72.42 86.36,-111 l 18.61,-29.76 9.26,-14.85 8.51,-15.32 16.84,-30.63 c 5.38,-10.32 10.24,-20.92 15.25,-31.41 79.88,-168.06 106.8,-357.58 79.05,-534.688 -2.91,44.797 -5.33,89.158 -13.54,132.758 -2.84,21.88 -8.22,43.39 -12.4,64.89 -2.46,10.71 -5.44,21.3 -8.05,31.92 -2.72,10.61 -5.23,21.23 -8.73,31.61 -25.26,83.64 -59.94,163.57 -105.56,236.22 -21.85,36.84 -47.65,71.05 -73.97,104.34 -27.57,32.39 -55.64,64.16 -87,92.59 -30.44,29.31 -63.7,55.39 -97.38,80.33 -34.3,24.2 -69.92,46.21 -106.64,65.96 -37.07,19.07 -74.69,37.02 -113.94,50.67 -9.64,3.8 -19.47,7.14 -29.36,10.26 -9.88,3.12 -19.61,6.7 -29.59,9.47 -19.99,5.47 -39.85,11.26 -60.16,15.33 -20.06,4.98 -40.59,7.81 -60.88,11.52 -20.53,2.27 -40.85,5.94 -61.46,7.11 -41.05,3.97 -82.35,4.17 -123.41,2.21 -41.097,-1.71 -81.929,-7.01 -122.327,-14.04 -40.434,-7.12 -80.039,-18.05 -119.051,-30.39 -38.859,-12.93 -76.91,-28.13 -113.813,-45.8 -36.488,-18.42 -72.488,-37.99 -106.214,-61.16 -8.731,-5.34 -16.95,-11.43 -25.25,-17.4 -8.231,-6.07 -16.801,-11.68 -24.778,-18.09 -15.953,-12.8 -32.262,-25.19 -47.312,-39.11 -31.075,-26.72 -59.367,-56.57 -86.59,-87.18 l -19.902,-23.44 c -6.711,-7.76 -12.559,-16.19 -18.903,-24.24 -12.879,-15.99 -23.91,-33.28 -35.703,-50.07 -5.609,-8.57 -10.801,-17.42 -16.25,-26.11 l -8.094,-13.08 -7.429,-13.48 -14.871,-26.95 -13.692,-27.59 c -17.582,-37.1 -33.461,-75.2 -45.574,-114.6 -3.266,-9.78 -6.434,-19.59 -8.93,-29.6 l -8.254,-29.83 c -4.41,-20.16 -9.687,-40.19 -12.84,-60.64 -4.074,-20.31 -6.367,-40.89 -9.066,-61.46 -1.215,-10.29 -1.754,-20.65 -2.68,-30.99 l -1.289,-15.52 -0.629,-15.55 c -2.461,-41.521 -0.789,-83.232 2.657,-124.81 3.464,-41.64 10.496,-82.949 19.25,-123.992 9.25,-40.969 21.773,-81.156 35.836,-120.988 29.949,-78.871 69.468,-154.961 119.906,-224.32 49.547,-70.051 109.625,-133.399 176.871,-189.129 67.629,-55.309 143,-102.641 224.336,-140.3207"
             style="fill:url(#linearGradient4283);fill-opacity:1;fill-rule:nonzero;stroke:none"
             id="path4291"
             inkscape:connector-curvature="0" /></g></g></g></g></svg>