<?xml version="1.0" encoding="UTF-8" standalone="no"?>
<!-- Created with Inkscape (http://www.inkscape.org/) -->

<svg
  xmlns:dc="http://purl.org/dc/elements/1.1/"
  xmlns:cc="http://creativecommons.org/ns#"
  xmlns:rdf="http://www.w3.org/1999/02/22-rdf-syntax-ns#"
  xmlns:svg="http://www.w3.org/2000/svg"
  xmlns="http://www.w3.org/2000/svg"
  xmlns:sodipodi="http://sodipodi.sourceforge.net/DTD/sodipodi-0.dtd"
  xmlns:inkscape="http://www.inkscape.org/namespaces/inkscape"
  id="svg4761"
  version="1.1"
  inkscape:version="0.91 r13725"
  width="310.16187"
  height="409.96606"
  viewBox="0 0 310.16187 409.96606"
  sodipodi:docname="cat.svg">
  <metadata
    id="metadata4767">
    <rdf:RDF>
      <cc:Work
        rdf:about="">
        <dc:format>image/svg+xml</dc:format>
        <dc:type
          rdf:resource="http://purl.org/dc/dcmitype/StillImage"/>
        <dc:title></dc:title>
      </cc:Work>
    </rdf:RDF>
  </metadata>
  <defs
    id="defs4765"/>
  <sodipodi:namedview
    pagecolor="#ffffff"
    bordercolor="#666666"
    borderopacity="1"
    objecttolerance="10"
    gridtolerance="10"
    guidetolerance="10"
    inkscape:pageopacity="0"
    inkscape:pageshadow="2"
    inkscape:window-width="1440"
    inkscape:window-height="855"
    id="namedview4763"
    showgrid="false"
    fit-margin-top="0"
    fit-margin-left="0"
    fit-margin-right="0"
    fit-margin-bottom="0"
    inkscape:zoom="1.18"
    inkscape:cx="113.95274"
    inkscape:cy="215.10243"
    inkscape:window-x="0"
    inkscape:window-y="0"
    inkscape:window-maximized="0"
    inkscape:current-layer="svg4761"/>
  <path
    fill="currentColor"
    d="m 90.661877,407.56601 c -2.75,-1.32003 -6.83796,-4.36534 -9.08435,-6.76736 -4.52635,-4.83993 -10.41565,-13.55023 -10.41565,-15.4048 0,-0.65703 -3.4875,-2.44108 -7.75,-3.96455 -6.91696,-2.4722 -16.23018,-7.06779 -20.17464,-9.95512 -4.95616,-3.62789 -17.36441,-17.14123 -21.15844,-23.04283 -4.5879,-7.13646 -10.91692,-20.13749 -10.91692,-22.42546 0,-0.69628 -0.660115,-2.46039 -1.4669221,-3.92025 -2.45281,-4.43818 -6.436858,-23.09569 -8.062279,-37.75606 -2.33561302,-21.06591 -2.15777202,-40.64096 0.484906,-53.37403 1.195807,-5.76168 2.543004,-10.93668 2.993772,-11.5 0.450768,-0.56331 1.139372,-2.51892 1.530233,-4.3458 0.763669,-3.5694 4.0479621,-11.23187 11.0938001,-25.88257 2.43457,-5.06229 4.42649,-9.67479 4.42649,-10.25 0,-0.57521 0.4151,-1.04583 0.92245,-1.04583 0.50734,0 1.4575,-1.6875 2.11145,-3.75 0.65395,-2.0625 1.74477,-4.65 2.42405,-5.75 0.67928,-1.1 2.03867,-4.475 3.02087,-7.5 0.9822,-3.025 2.15081,-5.96543 2.59692,-6.53429 0.44611,-0.56886 1.2677,-3.86945 1.82575,-7.33464 1.48722,-9.23479 0.0774,-15.18434 -5.04905,-21.30731 -7.20414,-8.60456 -6.14756,-17.83278 2.75251,-24.04054 4.4327,-3.091782 8.68041,-3.485302 13.2131,-1.2241 3.67406,1.83286 10.00178,8.23867 12.30028,12.45207 0.89008,1.63162 2.08062,3.53408 2.64565,4.22769 0.56503,0.69362 1.97428,4.45964 3.13167,8.36893 2.68359,9.06431 2.70402,18.7322 0.0636,30.10346 -1.90032,8.18394 -6.19463,20.49418 -7.94962,22.78873 -0.42067,0.55 -1.09983,2.125 -1.50925,3.5 -0.40941,1.375 -3.83949,8.85552 -7.62239,16.62338 -3.78289,7.76786 -6.87799,14.41026 -6.87799,14.7609 0,0.35063 -0.88359,2.54511 -1.96353,4.87662 -1.07994,2.3315 -3.21744,8.0641 -4.75,12.7391 -2.68229,8.18219 -2.78274,9.22909 -2.68676,28 0.0548,10.725 0.63507,22.2 1.2894,25.5 0.65433,3.3 1.85163,9.72609 2.66068,14.2802 0.80904,4.55411 1.8923,9.05411 2.40724,10 0.51495,0.94589 1.69847,4.16369 2.63006,7.15067 1.73607,5.56643 3.73838,9.55575 8.30956,16.5557 3.04927,4.66941 9.01733,10.93278 9.73422,10.21589 0.27365,-0.27365 -0.019,-5.38115 -0.65044,-11.35 -1.79136,-16.93463 -2.36082,-42.6941 -1.12138,-50.72566 0.6049,-3.91974 1.608,-11.1768 2.22912,-16.1268 1.19577,-9.52964 4.19194,-21.1404 8.64471,-33.5 3.67153,-10.1911 14.05545,-30.33249 18.03962,-34.99093 0.70986,-0.82999 3.90856,-4.90433 7.10823,-9.0541 7.42867,-9.63452 23.686403,-25.79746 37.053393,-36.83735 38.51563,-31.81035 41.43707,-35.32255 43.09847,-51.813612 2.07282,-20.57486 3.20244,-22.31256 32.05096,-49.30401 6.76017,-6.325 15.9194,-14.9024 20.35384,-19.06089 4.43443,-4.158489 10.70706,-10.008489 13.93916,-13 3.2321,-2.99151 8.61123,-8.0266098 11.95362,-11.1891098 6.31911,-5.97899802 9.27653,-7.000441 12.0984,-4.178571 1.21866,1.218657 1.57143,3.812161 1.57143,11.5528228 l 0,9.981395 5.68981,8.197177 c 3.12939,4.508447 7.26271,10.447176 9.18514,13.197176 1.92244,2.75 7.73713,11.3 12.92155,19 5.18441,7.7 10.22646,14.9 11.20454,16 2.88027,3.23928 6.99896,12.20665 6.99896,15.2384 0,5.22143 -3.72345,16.271562 -7.29586,21.651992 -7.14462,10.76058 -18.4367,17.27244 -32.20414,18.57132 -9.43872,0.8905 -13.95113,3.19077 -18.13573,9.24499 -2.71035,3.92131 -2.85908,4.68538 -2.76778,14.21865 0.071,7.41278 0.64564,11.65994 2.17492,16.07465 3.76297,10.86295 6.42902,26.43126 6.93555,40.5 0.40617,11.28109 0.10625,15.55455 -1.82473,26 -2.24088,12.12184 -2.32699,14.70848 -2.84651,85.5 l -0.53572,73 -2.32884,3.26509 c -2.97259,4.16764 -7.59106,6.55792 -12.67116,6.55792 -5.0801,0 -9.69857,-2.39028 -12.67116,-6.55792 -2.30715,-3.23467 -2.33154,-3.56635 -2.6185,-35.60515 l -0.28967,-32.34006 -4.91362,6.57328 -4.91363,6.57329 -0.29671,26.46295 -0.29671,26.46295 -3.35381,3.45854 c -8.64857,8.91863 -23.00757,5.19944 -26.01341,-6.73785 -0.63459,-2.52021 -1.13278,-12.39448 -1.13278,-22.45225 0,-17.65209 0.0504,-18.07705 3.00239,-25.30718 12.69666,-31.09726 9.31793,-78.05634 -6.97465,-96.93685 -6.50093,-7.53355 -17.00695,-15.91676 -19.94721,-15.91676 -0.59429,0 -1.08053,-0.41425 -1.08053,-0.92054 0,-1.49923 -5.71303,-2.30341 -7.931,-1.11639 -1.12656,0.60292 -2.72042,2.39596 -3.54191,3.98454 -2.19734,4.24919 -0.27998,7.08251 8.95474,13.23252 6.82341,4.54416 16.51556,14.5926 16.51754,17.12473 3.5e-4,0.44268 0.86512,2.70255 1.92173,5.02194 3.95673,8.68557 5.56187,34.88834 3.13478,51.1732 -1.88416,12.64198 -7.90574,28.43422 -13.43832,35.2434 -3.5593,4.38058 -12.64787,13.13582 -15.85092,15.26957 l -3.73337,2.48703 10.33414,0.5 c 9.26979,0.4485 10.61155,0.75748 13.02759,3 3.91273,3.63172 5.605,7.31997 5.605,12.21594 0,5.79566 -2.83539,10.73826 -7.59163,13.23357 -3.67289,1.92695 -5.8665,2.0666 -36.40837,2.31785 l -32.500003,0.26736 -5,-2.40006 z"
  />
</svg>
