<?xml version="1.0" encoding="UTF-8" standalone="no"?>
<svg
   xmlns:dc="http://purl.org/dc/elements/1.1/"
   xmlns:cc="http://creativecommons.org/ns#"
   xmlns:rdf="http://www.w3.org/1999/02/22-rdf-syntax-ns#"
   xmlns:svg="http://www.w3.org/2000/svg"
   xmlns="http://www.w3.org/2000/svg"
   xmlns:sodipodi="http://sodipodi.sourceforge.net/DTD/sodipodi-0.dtd"
   xmlns:inkscape="http://www.inkscape.org/namespaces/inkscape"
   width="100"
   height="100"
   viewBox="0 0 100 100"
   fill="currentColor"
   version="1.1"
   id="svg1022"
   sodipodi:docname="location-pin.svg"
   inkscape:version="1.0.1 (c497b03c, 2020-09-10)">
  <metadata
     id="metadata1028">
    <rdf:RDF>
      <cc:Work
         rdf:about="">
        <dc:format>image/svg+xml</dc:format>
        <dc:type
           rdf:resource="http://purl.org/dc/dcmitype/StillImage" />
        <dc:title></dc:title>
      </cc:Work>
    </rdf:RDF>
  </metadata>
  <defs
     id="defs1026" />
  <sodipodi:namedview
     pagecolor="#ffffff"
     bordercolor="#666666"
     borderopacity="1"
     objecttolerance="10"
     gridtolerance="10"
     guidetolerance="10"
     inkscape:pageopacity="0"
     inkscape:pageshadow="2"
     inkscape:window-width="1792"
     inkscape:window-height="1075"
     id="namedview1024"
     showgrid="false"
     inkscape:zoom="6.8819933"
     inkscape:cx="35.147828"
     inkscape:cy="47.76583"
     inkscape:window-x="0"
     inkscape:window-y="23"
     inkscape:window-maximized="0"
     inkscape:current-layer="svg1022" />
  <path
     d="m 49.999986,44.117647 c -7.377,0 -13.278589,-5.882353 -13.278589,-13.235294 0,-7.352941 5.901589,-13.235294 13.278589,-13.235294 7.377058,0 13.278529,5.882353 13.278529,13.235294 0,7.352941 -5.901471,13.235294 -13.278529,13.235294 z M 49.999986,0 C 39.819721,0 30.229633,5 24.475574,13.529412 18.721512,21.911765 17.541191,32.647059 21.229691,42.205882 L 35.245986,73.08824 47.34428,98.38235 C 47.786897,99.41176 48.819691,100 49.999986,100 c 1.180294,0 2.213235,-0.58824 2.655588,-1.61765 L 64.754103,73.08824 78.77028,42.205882 C 82.458808,32.647059 81.278518,21.911765 75.524397,13.529412 69.77028,5 60.18028,0 49.999986,0 Z"
     id="path1020"
     style="stroke-width:2.94118" />
</svg>
