<svg width="942" height="228" viewBox="0 0 942 228" version="1.1" xmlns="http://www.w3.org/2000/svg">
  <path d="M25.7480469,190.084117 C24.2226486,190.084117 22.720385,190.061005 21.2412109,190.014781 C19.7620369,189.968557 18.375332,189.87611 17.0810547,189.737437 L17.0810547,226.000132 L0.09375,226.000132 L0.09375,133.228648 L26.8574219,133.228648 C31.3411683,133.228648 35.2586095,133.425098 38.6098633,133.818003 C41.961117,134.210909 44.9540884,134.800259 47.5888672,135.58607 C53.9215811,137.527486 58.79816,140.62446 62.21875,144.877085 C65.63934,149.129711 67.3496094,154.53786 67.3496094,161.101695 C67.3496094,165.585441 66.4251395,169.618441 64.5761719,173.200816 C62.7272043,176.783191 60.0231298,179.822385 56.4638672,182.318492 C52.9046046,184.814598 48.559596,186.732873 43.4287109,188.073375 C38.2978259,189.413876 32.4043302,190.084117 25.7480469,190.084117 Z M17.0810547,175.454234 C18.0517627,175.592906 19.2882412,175.696909 20.7905273,175.766246 C22.2928135,175.835582 23.8528565,175.87025 25.4707031,175.87025 C30.0468979,175.87025 33.8834481,175.500462 36.9804688,174.760875 C40.0774894,174.021287 42.5735582,172.992815 44.46875,171.675425 C46.3639418,170.358036 47.7275349,168.763325 48.5595703,166.891246 C49.3916057,165.019166 49.8076172,162.973776 49.8076172,160.755015 C49.8076172,158.027788 49.1836,155.67039 47.9355469,153.68275 C46.6874938,151.695109 44.5149894,150.146622 41.4179688,149.037242 C39.8001221,148.482551 37.8009559,148.078096 35.4204102,147.823863 C33.0398644,147.56963 30.1162283,147.442515 26.6494141,147.442515 L17.0810547,147.442515 L17.0810547,175.454234 Z M154.019531,161.101695 C154.019531,167.573081 152.228371,173.062122 148.645996,177.56898 C145.063621,182.075838 139.528358,185.415486 132.040039,187.588023 L132.040039,187.865367 L159.635742,226.000132 L139.250977,226.000132 L114.012695,190.084117 L102.364258,190.084117 L102.364258,226.000132 L85.3769531,226.000132 L85.3769531,133.228648 L113.59668,133.228648 C118.265323,133.228648 122.610331,133.494433 126.631836,134.026011 C130.65334,134.557589 134.096991,135.354945 136.962891,136.418101 C142.417345,138.49819 146.623683,141.583608 149.582031,145.674449 C152.540379,149.76529 154.019531,154.907653 154.019531,161.101695 Z M110.753906,175.87025 C114.636738,175.87025 117.930162,175.696911 120.634277,175.35023 C123.338392,175.003549 125.6149,174.483534 127.463867,173.790171 C130.884457,172.495894 133.253411,170.727845 134.570801,168.485972 C135.88819,166.244099 136.546875,163.667139 136.546875,160.755015 C136.546875,158.258909 136.026861,156.051737 134.986816,154.133433 C133.946772,152.215129 132.178723,150.70131 129.682617,149.591929 C128.064771,148.852342 126.030937,148.309216 123.581055,147.962535 C121.131173,147.615853 118.103534,147.442515 114.498047,147.442515 L102.364258,147.442515 L102.364258,175.87025 L110.753906,175.87025 Z M243.254883,179.61439 C243.254883,173.975039 242.56153,169.040681 241.174805,164.811167 C239.788079,160.581654 237.869804,157.057113 235.419922,154.237437 C232.97004,151.417761 230.05796,149.314592 226.683594,147.927867 C223.309228,146.541141 219.611348,145.847789 215.589844,145.847789 C211.568339,145.847789 207.87046,146.541141 204.496094,147.927867 C201.121728,149.314592 198.209648,151.417761 195.759766,154.237437 C193.309884,157.057113 191.391608,160.581654 190.004883,164.811167 C188.618157,169.040681 187.924805,173.975039 187.924805,179.61439 C187.924805,185.253741 188.618157,190.188099 190.004883,194.417613 C191.391608,198.647126 193.309884,202.160112 195.759766,204.956675 C198.209648,207.753239 201.121728,209.856408 204.496094,211.266246 C207.87046,212.676083 211.568339,213.380992 215.589844,213.380992 C219.611348,213.380992 223.309228,212.676083 226.683594,211.266246 C230.05796,209.856408 232.97004,207.753239 235.419922,204.956675 C237.869804,202.160112 239.788079,198.647126 241.174805,194.417613 C242.56153,190.188099 243.254883,185.253741 243.254883,179.61439 Z M260.796875,179.61439 C260.796875,186.686691 259.791514,193.169536 257.780762,199.063121 C255.770009,204.956705 252.834817,210.029733 248.975098,214.282359 C245.115378,218.534984 240.377469,221.839964 234.76123,224.197398 C229.144991,226.554832 222.754593,227.733531 215.589844,227.733531 C208.425094,227.733531 202.034696,226.554832 196.418457,224.197398 C190.802218,221.839964 186.06431,218.534984 182.20459,214.282359 C178.34487,210.029733 175.409678,204.956705 173.398926,199.063121 C171.388174,193.169536 170.382812,186.686691 170.382812,179.61439 C170.382812,172.542089 171.388174,166.059244 173.398926,160.16566 C175.409678,154.272076 178.34487,149.199047 182.20459,144.946421 C186.06431,140.693796 190.802218,137.388816 196.418457,135.031382 C202.034696,132.673949 208.425094,131.49525 215.589844,131.49525 C222.754593,131.49525 229.144991,132.673949 234.76123,135.031382 C240.377469,137.388816 245.115378,140.693796 248.975098,144.946421 C252.834817,149.199047 255.770009,154.272076 257.780762,160.16566 C259.791514,166.059244 260.796875,172.542089 260.796875,179.61439 Z M293.31543,133.228648 L310.302734,133.228648 L310.302734,201.80189 C310.302734,204.852687 310.083173,207.47587 309.644043,209.671519 C309.204913,211.867168 308.546228,213.796999 307.667969,215.46107 C306.512364,217.679831 305.056324,219.563438 303.299805,221.111949 C301.543285,222.660459 299.555675,223.931605 297.336914,224.925425 C295.118153,225.919245 292.737643,226.63571 290.195312,227.074839 C287.652982,227.513969 285.018243,227.733531 282.291016,227.733531 C279.47134,227.733531 276.732598,227.502413 274.074707,227.040171 C271.416816,226.57793 269.186532,225.977024 267.383789,225.237437 L267.383789,210.746226 C269.417653,211.578261 271.590158,212.22539 273.901367,212.687632 C276.212577,213.149874 278.50064,213.380992 280.765625,213.380992 C285.156923,213.380992 288.346344,212.364075 290.333984,210.33021 C292.321625,208.296346 293.31543,205.291819 293.31543,201.316539 L293.31543,133.228648 Z M349.130859,211.786265 L394.753906,211.786265 L394.753906,226.000132 L332.143555,226.000132 L332.143555,133.228648 L392.257812,133.228648 L392.257812,147.442515 L349.130859,147.442515 L349.130859,171.43275 L386.15625,171.43275 L386.15625,185.646617 L349.130859,185.646617 L349.130859,211.786265 Z M412.78125,226.000132 L412.78125,133.228648 L429.768555,133.228648 L429.768555,175.454234 L430.045898,175.454234 L465.060547,133.228648 L486.138672,133.228648 L447.449219,179.198375 L489.328125,226.000132 L467.556641,226.000132 L430.045898,184.121226 L429.768555,184.121226 L429.768555,226.000132 L412.78125,226.000132 Z M540.428711,226.000132 L523.441406,226.000132 L523.441406,147.442515 L493.488281,147.442515 L493.488281,133.228648 L570.3125,133.228648 L570.3125,147.442515 L540.428711,147.442515 L540.428711,226.000132 Z M583.486328,226.000132 L583.486328,133.228648 L600.473633,133.228648 L600.473633,226.000132 L583.486328,226.000132 Z M660.587891,226.000132 L643.600586,226.000132 L643.600586,147.442515 L613.647461,147.442515 L613.647461,133.228648 L690.47168,133.228648 L690.47168,147.442515 L660.587891,147.442515 L660.587891,226.000132 Z M720.632812,211.786265 L766.255859,211.786265 L766.255859,226.000132 L703.645508,226.000132 L703.645508,133.228648 L763.759766,133.228648 L763.759766,147.442515 L720.632812,147.442515 L720.632812,171.43275 L757.658203,171.43275 L757.658203,185.646617 L720.632812,185.646617 L720.632812,211.786265 Z M784.283203,226.000132 L784.283203,133.228648 L801.270508,133.228648 L801.270508,175.454234 L801.547852,175.454234 L836.5625,133.228648 L857.640625,133.228648 L818.951172,179.198375 L860.830078,226.000132 L839.058594,226.000132 L801.547852,184.121226 L801.270508,184.121226 L801.270508,226.000132 L784.283203,226.000132 Z M911.930664,226.000132 L894.943359,226.000132 L894.943359,147.442515 L864.990234,147.442515 L864.990234,133.228648 L941.814453,133.228648 L941.814453,147.442515 L911.930664,147.442515 L911.930664,226.000132 Z M300,34.1887143 C114.632297,34.1176471 17.0001478,85.044396 17,116 L-7.81710696e-10,116 C0.000217299862,80.0465212 86.884003,12.2823529 300,12.2823529 C513.115997,12.282409 599.999783,80.0465773 600,116.000056 L583,116.000056 C582.999852,85.0444521 485.367703,34.1177031 300,34.1887704 L300,34.1887143 Z" fill="#203864"/>
</svg>
