<?xml version="1.0" encoding="UTF-8" standalone="no"?>
<!-- Created with Inkscape (http://www.inkscape.org/) -->

<svg
  xmlns:dc="http://purl.org/dc/elements/1.1/"
  xmlns:cc="http://creativecommons.org/ns#"
  xmlns:rdf="http://www.w3.org/1999/02/22-rdf-syntax-ns#"
  xmlns:svg="http://www.w3.org/2000/svg"
  xmlns="http://www.w3.org/2000/svg"
  xmlns:sodipodi="http://sodipodi.sourceforge.net/DTD/sodipodi-0.dtd"
  xmlns:inkscape="http://www.inkscape.org/namespaces/inkscape"
  id="svg4861"
  version="1.1"
  inkscape:version="0.91 r13725"
  width="492"
  height="412.25925"
  viewBox="0 0 492 412.25925"
  sodipodi:docname="speaker.svg">
  <metadata
    id="metadata4867">
    <rdf:RDF>
      <cc:Work
        rdf:about="">
        <dc:format>image/svg+xml</dc:format>
        <dc:type
          rdf:resource="http://purl.org/dc/dcmitype/StillImage"/>
        <dc:title></dc:title>
      </cc:Work>
    </rdf:RDF>
  </metadata>
  <defs
    id="defs4865"/>
  <sodipodi:namedview
    pagecolor="#ffffff"
    bordercolor="#666666"
    borderopacity="1"
    objecttolerance="10"
    gridtolerance="10"
    guidetolerance="10"
    inkscape:pageopacity="0"
    inkscape:pageshadow="2"
    inkscape:window-width="1440"
    inkscape:window-height="855"
    id="namedview4863"
    showgrid="false"
    fit-margin-top="0"
    fit-margin-left="0"
    fit-margin-right="0"
    fit-margin-bottom="0"
    inkscape:zoom="1.0850575"
    inkscape:cx="251.20008"
    inkscape:cy="190.22246"
    inkscape:window-x="0"
    inkscape:window-y="0"
    inkscape:window-maximized="0"
    inkscape:current-layer="svg4861"/>
  <path
    fill="currentColor"
    d="m 272.33816,409.03605 c -2.24624,-2.0232 -5.52544,-4.80354 -7.28711,-6.17854 -4.2912,-3.34931 -7.92317,-6.35301 -20.97964,-17.35051 -6.18377,-5.20861 -7.75609,-6.50051 -13.57141,-11.151 -2.75,-2.19917 -5.225,-4.23835 -5.5,-4.53152 -0.275,-0.29316 -3.65,-3.13018 -7.5,-6.30449 -3.85,-3.1743 -8.35,-7.00082 -10,-8.50337 -1.65,-1.50256 -4.55334,-3.84054 -6.45186,-5.19551 -1.89853,-1.35498 -4.37353,-3.36924 -5.5,-4.47612 -1.12648,-1.10689 -4.29814,-3.80621 -7.04814,-5.99849 -6.44517,-5.13804 -9.45383,-7.62873 -11.46235,-9.48899 -1.43048,-1.32489 -7.96848,-6.6759 -13.43793,-10.99826 -1.04516,-0.82596 -2.6255,-2.17674 -3.51186,-3.00174 -0.88636,-0.825 -3.84581,-3.3 -6.57655,-5.5 -2.73074,-2.2 -6.1004,-4.96243 -7.48814,-6.13873 -1.38775,-1.17631 -4.6018,-3.87631 -7.14234,-6 -2.54054,-2.1237 -5.68741,-4.76127 -6.99304,-5.86127 -1.30564,-1.1 -3.90139,-3.2375 -5.76834,-4.75 l -3.39446,-2.75 -61.362495,0 -61.362495,0 0,-79 0,-79 61.760218,0 61.760222,0 2.48978,-2.25241 c 2.34276,-2.11939 3.73972,-3.28195 13.34598,-11.10658 2.12092,-1.72756 5.04592,-4.20743 6.5,-5.51084 1.45409,-1.3034 4.2188,-3.55084 6.1438,-4.99431 1.925,-1.44346 3.725,-2.90031 4,-3.237428 0.44557,-0.54622 11.96646,-10.164732 14.5,-12.1057 0.55,-0.42136 3.24903,-2.797098 5.99785,-5.279419 2.74882,-2.482321 5.30171,-4.513311 5.67308,-4.513311 0.37137,0 1.94734,-1.2375 3.50215,-2.75 1.5548,-1.5125 5.07692,-4.534741 7.82692,-6.716091 2.75,-2.18135 5.225,-4.20635 5.5,-4.5 0.275,-0.29365 4.09365,-3.458909 8.48588,-7.033909 4.39223,-3.575 8.71494,-7.175 9.60601,-8 0.89108,-0.825 3.06738,-2.625 4.83623,-4 1.76885,-1.375 4.42114,-3.541235 5.89398,-4.813855 1.47285,-1.27262 3.5779,-3.088369 4.6779,-4.034996 1.1,-0.946628 4.00975,-3.280393 6.4661,-5.186145 2.45636,-1.905752 5.69914,-4.590004 7.20619,-5.965004 3.66352,-3.342534 8.66051,-7.483857 12.32771,-10.216754 1.65,-1.229626 4.27212,-3.483885 5.82692,-5.0094649 1.55481,-1.5255794 3.12981,-2.7793909 3.5,-2.7862474 0.3702,-0.00686 2.55515,-1.7606995 4.85545,-3.8974288 3.19895,-2.97147263 4.31584,-3.53714716 4.75,-2.40574613 0.88594,2.30872853 0.66623,411.13666923 -0.22125,411.68515923 -0.43388,0.26816 -2.62671,-1.16779 -4.87296,-3.19098 z M 311.71901,300.35372 C 303.62356,292.44188 297,285.72541 297,285.42823 c 0,-0.51534 12.16987,-12.66466 49.9468,-49.8625 C 356.32606,226.33024 364,218.54566 364,218.26666 364,217.78879 327.54595,181.45522 306.57546,161.0319 301.30896,155.90281 297,151.53285 297,151.32087 c 0,-0.64211 29.04603,-29.46336 29.69314,-29.46336 0.65655,0 8.34789,7.48066 43.95393,42.75 12.90958,12.7875 23.70282,23.25 23.98498,23.25 0.55482,0 22.25154,-21.19415 49.90598,-48.75 9.52145,-9.4875 17.57947,-17.25 17.90672,-17.25 0.93604,0 29.55525,28.35154 29.55525,29.27884 0,0.76816 -19.46668,20.26192 -52.42536,52.4983 C 432.10859,210.93708 426,217.42487 426,218.05195 c 0,0.62709 14.85,15.8598 33,33.85047 18.15,17.99067 33,33.06571 33,33.50009 0,0.43437 -6.43918,7.19287 -14.30928,15.01887 -11.36504,11.30136 -14.64403,14.04176 -15.93621,13.31863 -0.89481,-0.50077 -16.14675,-15.30418 -33.8932,-32.89649 -17.74645,-17.59231 -32.64468,-31.98601 -33.10717,-31.98601 -0.4625,0 -5.50794,4.6125 -11.21208,10.25 -29.56287,29.21747 -54.23609,53.3825 -55.58557,54.44068 -1.26782,0.99414 -3.94803,-1.18378 -16.23748,-13.19447 z"
  />
</svg>
